<svg width="185" height="83" viewBox="0 0 185 83" fill="none" xmlns="http://www.w3.org/2000/svg">
<path d="M134.593 37.5381C134.157 39.0662 132.947 39.6393 132.947 39.6393H132.783L133.402 58.1406H134.593V37.5381Z" fill="#4D4D4D"/>
<path d="M132.56 58.1403H133.415L132.796 39.639H132.96C132.96 39.639 134.17 39.0659 134.606 37.5378V35.1273C134.379 34.1359 133.879 32.9625 132.96 31.5526C132.96 31.5526 133.051 30.0608 132.633 29.8516H132.714L132.496 21.0285C132.724 20.8829 132.878 20.5464 132.878 20.1462C132.878 19.7277 132.696 19.373 132.451 19.2457L131.996 0.999023L131.55 19.2457C131.305 19.373 131.123 19.7277 131.123 20.1462C131.123 20.5373 131.277 20.8738 131.505 21.0285L131.286 29.8516C130.932 30.0608 131.032 31.5526 131.032 31.5526C126.966 37.7288 131.032 39.639 131.032 39.639H131.195L129.977 75.9412H132.56V58.1403Z" fill="#4D4D4D"/>
<path d="M31.6181 75.9408H36.8211V47.5703H30.8086V55.6476H31.6181V75.9408Z" fill="#4D4D4D"/>
<path d="M36.2701 44.3789H31.4492V46.2527H36.2701V44.3789Z" fill="#4D4D4D"/>
<path d="M36.7292 46.4443H30.9805V47.3903H36.7292V46.4443Z" fill="#4D4D4D"/>
<path d="M46.139 52.6641H39.2715V54.556H46.139V52.6641ZM43.3647 53.9921H42.8553V53.2826H43.3647V53.9921ZM44.4016 53.2826H44.911V53.9921H44.4016V53.2826Z" fill="#4D4D4D"/>
<path d="M46.139 48.4258H39.2715V50.3178H46.139V48.4258ZM40.0719 49.6174H39.5626V48.9079H40.0719V49.6174ZM41.2999 49.6174H40.7905V48.9079H41.2999V49.6174ZM44.4016 48.917H44.911V49.6265H44.4016V48.917Z" fill="#4D4D4D"/>
<path d="M39.0854 50.5439H37.8848V52.4359H39.0854V50.5439Z" fill="#4D4D4D"/>
<path d="M46.139 54.792H39.2715V56.684H46.139V54.792ZM40.0719 55.9654H39.5626V55.265H40.0719V55.9654ZM42.4915 55.8926H41.9821V55.1922H42.4915V55.8926ZM44.4016 55.265H44.911V55.9745H44.4016V55.265Z" fill="#4D4D4D"/>
<path d="M46.139 50.5439H39.2715V52.4359H46.139V50.5439ZM40.0719 51.7355H39.5626V51.026H40.0719V51.7355ZM42.8462 51.026H43.3556V51.7355H42.8462V51.026Z" fill="#4D4D4D"/>
<path d="M39.0854 46.2969H37.8848V48.1889H39.0854V46.2969Z" fill="#4D4D4D"/>
<path d="M39.0854 48.4258H37.8848V50.3178H39.0854V48.4258Z" fill="#4D4D4D"/>
<path d="M46.139 56.9111H39.2715V58.8031H46.139V56.9111ZM40.0719 58.0845H39.5626V57.375H40.0719V58.0845ZM40.7905 57.375H41.2999V58.0845H40.7905V57.375Z" fill="#4D4D4D"/>
<path d="M39.0854 35.6914H37.8848V37.5834H39.0854V35.6914Z" fill="#4D4D4D"/>
<path d="M46.139 59.0312H39.2715V60.8414H41.9366V60.9232H46.139V59.0312ZM40.0719 60.1955H39.5626V59.4861H40.0719V60.1955ZM42.8462 59.4951H43.3556V60.2046H42.8462V59.4951Z" fill="#4D4D4D"/>
<path d="M39.0854 37.8105H37.8848V39.7025H39.0854V37.8105Z" fill="#4D4D4D"/>
<path d="M46.136 61.1602H41.9336V63.0521H46.136V61.1602ZM44.3986 61.6059H44.908V62.3154H44.3986V61.6059Z" fill="#4D4D4D"/>
<path d="M46.139 35.6914H39.2715V37.5834H46.139V35.6914ZM40.0719 36.9285H39.5626V36.2281H40.0719V36.9285ZM41.2999 36.9285H40.7905V36.2281H41.2999V36.9285ZM43.3647 36.9285H42.8553V36.2281H43.3647V36.9285ZM44.4016 36.219H44.911V36.9194H44.4016V36.219Z" fill="#4D4D4D"/>
<path d="M46.139 46.2969H39.2715V48.1889H46.139V46.2969ZM41.9821 46.8699H42.4915V47.5794H41.9821V46.8699Z" fill="#4D4D4D"/>
<path d="M39.0854 44.1768H37.8848V46.0687H39.0854V44.1768Z" fill="#4D4D4D"/>
<path d="M39.0854 42.0576H37.8848V43.9496H39.0854V42.0576Z" fill="#4D4D4D"/>
<path d="M46.139 44.1768H39.2715V46.0687H46.139V44.1768ZM41.2999 45.3865H40.7905V44.6861H41.2999V45.3865ZM43.3647 45.3865H42.8553V44.6861H43.3647V45.3865ZM44.4016 44.6861H44.911V45.3865H44.4016V44.6861Z" fill="#4D4D4D"/>
<path d="M46.139 42.0576H39.2715V43.9496H46.139V42.0576ZM39.5626 42.567H40.0719V43.2674H39.5626V42.567Z" fill="#4D4D4D"/>
<path d="M46.139 39.9395H39.2715V41.8314H46.139V39.9395ZM40.0719 41.1583H39.5626V40.4579H40.0719V41.1583ZM42.4915 41.1583H41.9821V40.4579H42.4915V41.1583ZM44.4016 40.4579H44.911V41.1583H44.4016V40.4579Z" fill="#4D4D4D"/>
<path d="M39.0854 59.0312H37.8848V60.8414H39.0854V59.0312Z" fill="#4D4D4D"/>
<path d="M46.139 37.8105H39.2715V39.7025H46.139V37.8105ZM42.8462 38.3381H43.3556V39.0385H42.8462V38.3381Z" fill="#4D4D4D"/>
<path d="M39.0854 39.9395H37.8848V41.8314H39.0854V39.9395Z" fill="#4D4D4D"/>
<path d="M46.136 65.3994H41.9336V67.2914H46.136V65.3994Z" fill="#4D4D4D"/>
<path d="M39.0854 54.792H37.8848V56.684H39.0854V54.792Z" fill="#4D4D4D"/>
<path d="M39.0854 56.9111H37.8848V58.8031H39.0854V56.9111Z" fill="#4D4D4D"/>
<path d="M46.136 71.7656H41.9336V73.2847H46.136V71.7656Z" fill="#4D4D4D"/>
<path d="M46.136 73.75H41.9336V74.032H46.136V73.75Z" fill="#4D4D4D"/>
<path d="M46.136 67.5176H41.9336V69.4096H46.136V67.5176ZM42.4885 68.9457H41.9791V68.2362H42.4885V68.9457ZM44.3986 68.2362H44.908V68.9457H44.3986V68.2362Z" fill="#4D4D4D"/>
<path d="M39.0854 52.6641H37.8848V54.556H39.0854V52.6641Z" fill="#4D4D4D"/>
<path d="M46.136 69.6455H41.9336V71.5375H46.136V69.6455Z" fill="#4D4D4D"/>
<path d="M46.136 63.2783H41.9336V65.1703H46.136V63.2783ZM42.8432 63.7968H43.3526V64.4972H42.8432V63.7968Z" fill="#4D4D4D"/>
<path d="M47.6812 29.3695H46.3077V30.7157H47.6812V31.88H46.3077V33.3444H47.6812V33.5718H46.3077V35.4638H47.6812V35.6912H46.3077V37.5832H47.6812V37.8106H46.3077V39.7117H47.6812V39.9391H46.3077V41.831H47.6812V42.0584H46.3077V43.9504H47.6812V44.1778H46.3077V46.0698H47.6812V46.2972H46.3077V48.1983H47.6812V48.4257H46.3077V50.3176H47.6812V50.545H46.3077V52.437H47.6812V52.6644H46.3077V54.5655H47.6812V54.7929H46.3077V56.6849H47.6812V56.9123H46.3077V58.8042H47.6812V59.0316H46.3077V60.9236H47.6812V61.1601H46.3077V63.0521H47.6812V63.2795H46.3077V65.1715H47.6812V65.3989H46.3077V67.2908H47.6812V67.5182H46.3077V69.4193H47.6812V69.6467H46.3077V71.5387H47.6812V71.7661H46.3077V73.2851H47.6812V73.749H46.3077V74.0219H47.6812V74.4858H41.9325V75.9412H47.8085V27.2319H47.2537V25.3581H45.7983V22.6748H40.0678V25.3581H38.6579V27.2319H37.8848V28.2143H47.6812V29.3695Z" fill="#4D4D4D"/>
<path d="M74.6359 56.6221V58.3867C74.6359 58.4686 74.6086 58.5322 74.5722 58.5322C74.5358 58.5322 74.5085 58.4686 74.5085 58.3867V58.5322H72.6984V58.4959C72.6984 58.4959 72.6711 58.5322 72.653 58.5322C72.6166 58.5322 72.5893 58.4686 72.5893 58.3867V56.6221H71.2613V58.3867C71.2613 58.4686 71.234 58.5322 71.1976 58.5322C71.1612 58.5322 71.1339 58.4686 71.1339 58.3867V58.5322H69.3238V58.4959C69.3238 58.4959 69.2965 58.5322 69.2783 58.5322C69.2419 58.5322 69.2147 58.4686 69.2147 58.3867V56.6221H67.8866V58.3867C67.8866 58.4686 67.8593 58.5322 67.823 58.5322C67.7866 58.5322 67.7593 58.4686 67.7593 58.3867V58.5322H65.9492V58.4959C65.9492 58.4959 65.9219 58.5322 65.9037 58.5322C65.8673 58.5322 65.84 58.4686 65.84 58.3867V56.6221H64.512V58.3867C64.512 58.4686 64.4847 58.5322 64.4483 58.5322C64.4119 58.5322 64.3847 58.4686 64.3847 58.3867V58.5322H62.5746V58.4959C62.5746 58.4959 62.5473 58.5322 62.5291 58.5322C62.4927 58.5322 62.4654 58.4686 62.4654 58.3867V56.6221H62.1016V75.942H74.7541V56.6221H74.6996H74.6359ZM62.6655 60.6061H63.5751V63.2713H62.6655V60.6061ZM62.8474 66.7187C62.8474 66.3639 62.9566 66.0092 63.1658 66.0092C63.375 66.0092 63.4842 66.3639 63.4842 66.7187V68.738H62.8474V66.7187ZM64.5939 74.2684H63.4023V70.7846H64.5939V74.2684ZM64.6303 68.738H63.9935V66.7187C63.9935 66.3639 64.1027 66.0092 64.3119 66.0092C64.5211 66.0092 64.6303 66.3639 64.6303 66.7187V68.738ZM65.0487 63.2713H64.1391V60.6061H65.0487V63.2713ZM66.3949 60.6061H67.3045V63.2713H66.3949V60.6061ZM66.7678 66.7187C66.7678 66.3639 66.877 66.0092 67.0862 66.0092C67.2954 66.0092 67.4045 66.3639 67.4045 66.7187V68.738H66.7678V66.7187ZM68.587 74.2684H67.3955V70.7846H68.587V74.2684ZM67.9048 68.738V66.7187C67.9048 66.3639 68.014 66.0092 68.2232 66.0092C68.4324 66.0092 68.5415 66.3639 68.5415 66.7187V68.738H67.9048ZM68.778 63.2713H67.8684V60.6061H68.778V63.2713ZM71.3886 60.6061H72.2982V63.2713H71.3886V60.6061ZM69.9241 60.6061H70.8338V63.2713H69.9241V60.6061ZM70.6882 66.7187C70.6882 66.3639 70.7974 66.0092 71.0066 66.0092C71.2158 66.0092 71.3249 66.3639 71.3249 66.7187V68.738H70.6882V66.7187ZM72.1982 74.2684H71.0066V70.7846H72.1982V74.2684ZM72.471 68.738H71.8343V66.7187C71.8343 66.3639 71.9435 66.0092 72.1527 66.0092C72.3619 66.0092 72.471 66.3639 72.471 66.7187V68.738ZM74.3721 63.2713H73.4989V60.6061H74.3721V63.2713Z" fill="#4D4D4D"/>
<path d="M62.4008 56.2852V53.2563C62.4008 53.1744 62.4281 53.1107 62.4645 53.1107C62.5009 53.1107 62.5282 53.1744 62.5282 53.2563V53.9749L63.4105 52.2102L64.3201 54.0203V53.2654C64.3201 53.1835 64.3474 53.1198 64.3838 53.1198C64.4202 53.1198 64.4474 53.1835 64.4474 53.2654V56.2943H65.7755V53.2654C65.7755 53.1835 65.8028 53.1198 65.8391 53.1198C65.8755 53.1198 65.9028 53.1835 65.9028 53.2654V53.9839L66.7851 52.2193L67.6947 54.0294V53.2745C67.6947 53.1926 67.722 53.1289 67.7584 53.1289C67.7948 53.1289 67.8312 53.1926 67.8312 53.2745V56.3034H69.1592V53.2745C69.1592 53.1926 69.1865 53.1289 69.2229 53.1289C69.2592 53.1289 69.2865 53.1926 69.2865 53.2745V53.993L70.1688 52.2284L71.0785 54.0385V53.2836C71.0785 53.2017 71.1057 53.138 71.1421 53.138C71.1785 53.138 71.2058 53.2017 71.2058 53.2836V56.3125H72.5338V53.2836C72.5338 53.2017 72.5611 53.138 72.5975 53.138C72.6339 53.138 72.6612 53.2017 72.6612 53.2836V54.0021L73.5435 52.2375L74.4531 54.0476V53.2927C74.4531 53.2108 74.4804 53.1471 74.5168 53.1471C74.5531 53.1471 74.5804 53.2108 74.5804 53.2927V56.3216H74.635V50.2637H61.9824V56.3216H62.3463L62.4008 56.2852Z" fill="#4D4D4D"/>
<path d="M62.0332 50.2184H74.6858V56.2854H74.6312V56.622H74.6858H74.8586V56.4492V50.0547V49.8818H62.0332V50.2184Z" fill="#4D4D4D"/>
<path d="M72.5722 56.2852H71.2441V56.6217H72.5722V56.2852Z" fill="#4D4D4D"/>
<path d="M65.787 56.2852H64.459V56.6217H65.787V56.2852Z" fill="#4D4D4D"/>
<path d="M62.397 56.2852H62.0332V56.6217H62.397V56.2852Z" fill="#4D4D4D"/>
<path d="M69.1874 56.2852H67.8594V56.6217H69.1874V56.2852Z" fill="#4D4D4D"/>
<path d="M50.642 52.5195H49.0957V57.0221H50.642V52.5195Z" fill="#4D4D4D"/>
<path d="M56.7634 60.6054H55.4717V58.959C55.4717 58.6679 55.7719 58.4314 56.1357 58.4314C56.4268 58.4314 56.6724 58.5861 56.7634 58.7862V57.2217H51.1875V61.7151H56.7634V60.5963V60.6054ZM52.7611 60.6054H51.424V58.959C51.424 58.6679 51.7242 58.4314 52.088 58.4314C52.4518 58.4314 52.752 58.6679 52.752 58.959V60.6054H52.7611ZM54.7895 60.6054H53.4524V58.959C53.4524 58.6679 53.7526 58.4314 54.1255 58.4314C54.4985 58.4314 54.7895 58.6679 54.7895 58.959V60.6054Z" fill="#4D4D4D"/>
<path d="M50.642 57.2305H49.0957V61.7239H50.642V57.2305Z" fill="#4D4D4D"/>
<path d="M58.8939 61.9326H57.3203V75.9405H58.8939V61.9326Z" fill="#4D4D4D"/>
<path d="M51.1875 61.9326V73.2481H52.2972V75.9405H56.7634V61.9326H51.1875ZM53.3251 69.3186H52.1335V65.7711H53.3251V69.3186ZM54.7259 65.7711H55.9174V69.3186H54.7259V65.7711Z" fill="#4D4D4D"/>
<path d="M50.642 49.8174H49.0957V52.3097H50.642V49.8174Z" fill="#4D4D4D"/>
<path d="M50.642 61.9326H49.0957V73.2481H50.642V61.9326Z" fill="#4D4D4D"/>
<path d="M56.7634 49.8174H56.3904V51.0544H55.9629V49.8174H55.2352V51.0544H54.8077V49.8174H54.08V51.0544H53.6525V49.8174H53.1886V51.0544H52.7611V49.8174H52.0334V51.0544H51.6059V49.8174H51.1875V52.3097H56.7634V49.8174Z" fill="#4D4D4D"/>
<path d="M58.8939 49.8174H57.3203V52.3097H58.8939V49.8174Z" fill="#4D4D4D"/>
<path d="M58.8939 52.5195H57.3203V57.0221H58.8939V52.5195Z" fill="#4D4D4D"/>
<path d="M56.7634 52.5195H51.1875V57.0221H56.7634V52.5195ZM52.5246 56.5673H52.0607V54.9209C52.0607 54.6298 52.1699 54.3933 52.2972 54.3933C52.4246 54.3933 52.5337 54.6298 52.5337 54.9209V56.5673H52.5246ZM53.6889 56.5673H53.2159V54.9209C53.2159 54.6298 53.3251 54.3933 53.4524 54.3933C53.5798 54.3933 53.6889 54.6298 53.6889 54.9209V56.5673ZM55.117 56.5673H54.6531V54.9209C54.6531 54.6298 54.7622 54.3933 54.8896 54.3933C55.0169 54.3933 55.1261 54.6298 55.1261 54.9209V56.5673H55.117ZM55.8174 56.5673V54.9209C55.8174 54.6298 55.9174 54.3933 56.0539 54.3933C56.1903 54.3933 56.2904 54.6298 56.2904 54.9209V56.5673H55.8265H55.8174Z" fill="#4D4D4D"/>
<path d="M58.8939 57.2305H57.3203V61.7239H58.8939V57.2305Z" fill="#4D4D4D"/>
<path d="M61.7023 51.6009L59.0645 49.8545V75.9419H61.7023V51.6009Z" fill="#4D4D4D"/>
<path d="M49.0359 75.9402V73.2478H49.0996V61.9323H48.9267V61.7231H49.0996V57.2296H48.9267V57.0204H49.0996V52.5179H48.9267V52.3087H49.0996V49.8164H48.7812V49.0068H48.7539V75.9402H49.0359Z" fill="#4D4D4D"/>
<path d="M56.7634 48.3629V45.0883H57.3182V49.4817H59.1192L61.7025 51.2008V49.3453V48.845L57.2818 40.3493L55.7901 38.9121L51.1875 45.6887V48.8541L54.7168 42.0684L56.7634 48.3629Z" fill="#4D4D4D"/>
<path d="M50.6343 46.5068L49.1152 48.7445V49.4812H50.6343V46.5068Z" fill="#4D4D4D"/>
<path d="M51.1875 45.6869L55.7901 38.9104L57.2818 40.3476L61.7025 48.8432V49.3435V51.1991L59.1192 49.48H57.3182V49.8165H58.8918V49.7528H59.0647V49.8529L61.7025 51.5993L62.0391 51.8267V50.2167V49.8802V49.007V48.7978L57.5729 40.1656L55.7355 38.3828L51.1875 45.0866V45.6869Z" fill="#4D4D4D"/>
<path d="M51.6059 49.5723H51.1875V49.827H51.6059V49.5723Z" fill="#4D4D4D"/>
<path d="M49.0898 49.8169H50.6271V49.4803H49.108V48.7435L50.6271 46.5059V45.8965L48.7715 48.6344V49.0073V49.8169H49.0898Z" fill="#4D4D4D"/>
<path d="M56.7636 49.5723H56.3906V49.827H56.7636V49.5723Z" fill="#4D4D4D"/>
<path d="M52.757 49.5723H52.0293V49.827H52.757V49.5723Z" fill="#4D4D4D"/>
<path d="M55.9601 49.5723H55.2324V49.827H55.9601V49.5723Z" fill="#4D4D4D"/>
<path d="M53.6605 49.5723H53.1875V49.827H53.6605V49.5723Z" fill="#4D4D4D"/>
<path d="M54.8019 49.5723H54.0742V49.827H54.8019V49.5723Z" fill="#4D4D4D"/>
<path d="M126.569 49.8887H126.542L126.306 49.8978V54.3639H124.969V49.916L124.796 49.9251V54.3639H123.459V49.9432H123.286V54.3639H121.949V49.9705H121.703V55.0734H126.569V49.8887Z" fill="#4D4D4D"/>
<path d="M118.275 51.582V52.6281V75.9412H119.431V50.3086L118.275 51.582Z" fill="#4D4D4D"/>
<path d="M120.789 55.6846H119.697V61.4242H120.789V55.6846Z" fill="#4D4D4D"/>
<path d="M126.569 62.0332H121.703V66.9905H126.569V62.0332ZM124.996 63.343C124.996 62.9155 125.26 62.5608 125.578 62.5608C125.896 62.5608 126.16 62.9155 126.16 63.343V65.7808H124.996V63.343ZM122.877 62.5608C123.195 62.5608 123.459 62.9155 123.459 63.343V65.7808H122.294V63.343C122.294 62.9155 122.558 62.5608 122.877 62.5608Z" fill="#4D4D4D"/>
<path d="M126.569 55.6846H121.703V61.4242H126.569V55.6846ZM124.996 57.7858C124.996 57.3582 125.26 57.0035 125.578 57.0035C125.896 57.0035 126.16 57.3491 126.16 57.7858V60.2235H124.996V57.7858ZM122.877 57.0035C123.195 57.0035 123.459 57.3491 123.459 57.7858V60.2235H122.294V57.7858C122.294 57.3582 122.558 57.0035 122.877 57.0035Z" fill="#4D4D4D"/>
<path d="M120.789 62.0332H119.697V66.9905H120.789V62.0332Z" fill="#4D4D4D"/>
<path d="M129.12 55.076V49.9367L127.556 49.873H127.492V55.076H129.12Z" fill="#4D4D4D"/>
<path d="M119.695 55.0739H120.786V49.9893L119.695 50.0075L119.658 50.0529H119.695V55.0739Z" fill="#4D4D4D"/>
<path d="M129.12 55.6846H127.492V61.4242H129.12V55.6846Z" fill="#4D4D4D"/>
<path d="M126.569 72.7561V67.5986H121.703V75.9397H125.987V72.7561H126.56H126.569ZM123.459 72.2376H122.294V69.7999C122.294 69.3633 122.558 69.0176 122.877 69.0176C123.195 69.0176 123.459 69.3724 123.459 69.7999V72.2376ZM124.996 69.809C124.996 69.3724 125.26 69.0267 125.578 69.0267C125.896 69.0267 126.16 69.3815 126.16 69.809V72.2467H124.996V69.809Z" fill="#4D4D4D"/>
<path d="M129.12 67.5986H127.492V72.7561H129.12V67.5986Z" fill="#4D4D4D"/>
<path d="M120.789 67.5986H119.697V75.9397H120.789V67.5986Z" fill="#4D4D4D"/>
<path d="M129.12 62.0332H127.492V66.9905H129.12V62.0332Z" fill="#4D4D4D"/>
<path d="M118.282 52.6279H118.109V75.9411H118.282V52.6279Z" fill="#4D4D4D"/>
<path d="M129.121 49.9355V55.0748H129.294V55.6842H129.121V61.4238H129.294V62.0333H129.121V66.9906H129.294V67.6H129.121V72.7575H129.458V49.9537L129.121 49.9355Z" fill="#4D4D4D"/>
<path d="M113.791 57.2126V61.7243H117.975V62.1427H113.791V67.0818H117.975V67.5002H113.791V75.9323H118.112V52.6191H113.791V56.6851H117.975V57.1035H113.791V57.1581L113.836 57.2126H113.791ZM115.692 65.863H115.174V63.2888H115.692V65.863ZM117.075 65.863H116.556V63.2888H117.075V65.863ZM115.692 71.9209H115.174V69.3467H115.692V71.9209ZM117.075 71.9209H116.556V69.3467H117.075V71.9209ZM115.692 55.6845H115.174V53.1103H115.692V55.6845ZM117.075 55.6845H116.556V53.1103H117.075V55.6845ZM116.556 57.9949H117.075V60.5691H116.556V57.9949ZM115.174 57.9949H115.692V60.5691H115.174V57.9949Z" fill="#4D4D4D"/>
<path d="M111.555 70.0391H111.373V72.5496H111.555V70.0391Z" fill="#4D4D4D"/>
<path d="M108.816 57.1758H101.057V75.9409H113.455V57.2122L108.816 57.1758ZM111.117 59.1951H111.808V61.933H111.117V59.1951ZM103.831 72.8937H102.976V69.701H103.831V72.8937ZM103.922 67.3815H102.894V64.9256C102.894 64.4526 103.121 64.0797 103.413 64.0797C103.704 64.0797 103.931 64.4526 103.931 64.9256V67.3815H103.922ZM103.922 61.9421H102.885V59.2042H103.922V61.9421ZM105.896 72.8937H105.041V69.701H105.896V72.8937ZM105.987 67.3815H104.959V64.9256C104.959 64.4526 105.186 64.0797 105.477 64.0797C105.768 64.0797 105.996 64.4526 105.996 64.9256V67.3815H105.987ZM105.987 61.9421H104.95V59.2042H105.987V61.9421ZM107.97 72.8937H107.115V69.701H107.97V72.8937ZM108.051 67.3815H107.024V64.9256C107.024 64.4526 107.251 64.0797 107.542 64.0797C107.833 64.0797 108.061 64.4526 108.061 64.9256V67.3815H108.051ZM108.061 61.9421H107.024V59.2042H108.061V61.9421ZM110.034 72.8937H109.179V69.701H110.034V72.8937ZM110.125 67.3815H109.098V64.9256C109.098 64.4526 109.325 64.0797 109.616 64.0797C109.907 64.0797 110.134 64.4526 110.134 64.9256V67.3815H110.125ZM110.125 61.9421H109.088V59.2042H110.125V61.9421ZM111.89 72.8937H111.035V69.701H111.89V72.8937ZM110.944 67.3815V64.9256C110.944 64.4526 111.171 64.0797 111.463 64.0797C111.754 64.0797 111.981 64.4526 111.981 64.9256V67.3815H110.953H110.944Z" fill="#4D4D4D"/>
<path d="M103.496 70.0391H103.314V72.5496H103.496V70.0391Z" fill="#4D4D4D"/>
<path d="M105.561 70.0391H105.379V72.5496H105.561V70.0391Z" fill="#4D4D4D"/>
<path d="M107.633 70.0391H107.451V72.5496H107.633V70.0391Z" fill="#4D4D4D"/>
<path d="M109.698 70.0391H109.516V72.5496H109.698V70.0391Z" fill="#4D4D4D"/>
<path d="M80.3027 35.4268V37.0187C80.5938 37.0187 80.8212 37.3916 80.8212 37.8555V39.8475H85.4511V36.9095C85.3965 36.8276 85.351 36.7094 85.351 36.582V35.918C85.351 35.6724 85.4784 35.4723 85.6239 35.4723C85.7695 35.4723 85.8968 35.6724 85.8968 35.918V36.1091L87.7524 33.1801L89.708 36.2546V35.918C89.708 35.6724 89.8354 35.4723 89.9809 35.4723C90.1264 35.4723 90.2538 35.6724 90.2538 35.918V36.582C90.2538 36.764 90.181 36.9277 90.0901 36.9914V39.8566H94.8655V37.8646C94.8655 37.4007 95.102 37.0278 95.384 37.0278V35.7361L94.8928 34.7174C94.8928 34.7174 90.3084 24.5662 90.0082 24.4661C89.9536 24.4479 89.8991 24.4388 89.8445 24.4207V23.0926C89.8445 22.9653 89.7808 22.8652 89.708 22.8652C89.6353 22.8652 89.5716 22.9653 89.5716 23.0926V24.3388C87.9161 23.8931 86.4789 24.166 85.824 24.3479V23.0926C85.824 22.9653 85.7604 22.8652 85.6876 22.8652C85.6148 22.8652 85.5511 22.9653 85.5511 23.0926V24.4298C85.4875 24.457 85.4511 24.4661 85.4511 24.4661C85.2874 24.8846 80.5665 34.7174 80.5665 34.7174L80.3664 35.1267C80.3664 35.345 80.3664 35.4723 80.3664 35.4723L80.3118 35.4359L80.3027 35.4268Z" fill="#4D4D4D"/>
<path d="M89.7043 36.5736V36.2461H85.893V36.5736C85.893 36.71 85.8566 36.8191 85.793 36.901H89.7952C89.7406 36.8191 89.6952 36.7009 89.6952 36.5736" fill="#4D4D4D"/>
<path d="M74.8587 56.449V75.9418H86.2105V69.2926C86.2105 68.0373 87.0201 67.0277 88.0207 67.0277C89.0212 67.0277 89.8308 68.0464 89.8308 69.2926V75.9418H100.873V57.113H100.81V53.3199H100.873V37.8567C100.873 37.3928 100.637 37.0198 100.355 37.0198C100.337 37.0198 100.309 37.0198 100.291 37.0198V35.4189L98.945 34.4639L96.4163 34.5003L95.3702 35.4099V37.0108C95.0883 37.0108 94.8518 37.3837 94.8518 37.8476V39.8396H95.0246V64.3261H80.6347V39.8396H80.8075V37.8476C80.8075 37.3837 80.5801 37.0108 80.289 37.0108V35.4189L78.9428 34.4639L76.4141 34.5003L75.3681 35.4099V37.0108C75.077 37.0108 74.8496 37.3837 74.8496 37.8476V56.4399L74.8587 56.449ZM97.8262 73.6223H96.6255V67.9555H97.8262V73.6223ZM97.3168 56.7037C97.3168 56.9129 97.2167 57.0766 97.0803 57.0766C96.9439 57.0766 96.8529 56.9129 96.8529 56.7037V52.2375C96.8529 52.0283 96.953 51.8646 97.0803 51.8646C97.2077 51.8646 97.3168 52.0283 97.3168 52.2375V56.7037ZM97.6897 62.7434V65.2539H96.8711V62.7434C96.8711 62.2977 97.053 61.9339 97.2804 61.9339C97.5078 61.9339 97.6897 62.2977 97.6897 62.7434ZM97.717 56.7037V52.2375C97.717 52.0283 97.8262 51.8646 97.9444 51.8646C98.0627 51.8646 98.1718 52.0283 98.1718 52.2375V56.7037C98.1718 56.9129 98.0718 57.0766 97.9444 57.0766C97.8171 57.0766 97.717 56.9129 97.717 56.7037ZM97.999 62.7434C97.999 62.2977 98.1809 61.9339 98.4083 61.9339C98.6357 61.9339 98.8176 62.2977 98.8176 62.7434V65.2539H97.999V62.7434ZM98.5812 56.7037V52.2375C98.5812 52.0283 98.6812 51.8646 98.8176 51.8646C98.9541 51.8646 99.045 52.0283 99.045 52.2375V56.7037C99.045 56.9129 98.945 57.0766 98.8176 57.0766C98.6903 57.0766 98.5812 56.9129 98.5812 56.7037ZM99.327 73.6223H98.1264V67.9555H99.327V73.6223ZM99.9819 36.9744H100.127V57.5223H99.9819V36.9744ZM100.046 62.7434V65.2539H99.227V62.7434C99.227 62.2977 99.4089 61.9339 99.6363 61.9339C99.8637 61.9339 100.046 62.2977 100.046 62.7434ZM99.6727 43.7509V47.5167H96.007V43.7509C96.007 43.0505 96.8347 42.4866 97.8444 42.4866C98.854 42.4866 99.6818 43.0505 99.6818 43.7509M97.4714 36.3922C97.4714 36.0648 97.6352 35.801 97.8353 35.801C98.0354 35.801 98.1991 36.0648 98.1991 36.3922V38.2387H97.4623V36.3922H97.4714ZM95.3884 36.9744H95.534V57.5223H95.3884V36.9744ZM91.6227 69.9384C91.6227 69.0288 92.2139 68.2829 92.9416 68.2829C93.6693 68.2829 94.2605 69.0197 94.2605 69.9384V75.0685H91.6227V69.9384ZM81.4078 69.9384C81.4078 69.0288 81.9991 68.2829 82.7268 68.2829C83.4545 68.2829 84.0457 69.0197 84.0457 69.9384V75.0685H81.4078V69.9384ZM76.6506 62.7434V65.2539H75.832V62.7434C75.832 62.2977 76.0139 61.9339 76.2413 61.9339C76.4687 61.9339 76.6506 62.2977 76.6506 62.7434ZM76.6324 56.7037V52.2375C76.6324 52.0283 76.7325 51.8646 76.8598 51.8646C76.9872 51.8646 77.0963 52.0283 77.0963 52.2375V56.7037C77.0963 56.9129 76.9872 57.0766 76.8598 57.0766C76.7325 57.0766 76.6324 56.9129 76.6324 56.7037ZM76.9235 73.3676H76.2322V68.2101H76.9235V73.3676ZM76.9508 62.7434C76.9508 62.2977 77.1327 61.9339 77.3601 61.9339C77.5875 61.9339 77.7694 62.2977 77.7694 62.7434V65.2539H76.9508V62.7434ZM77.4966 56.7037V52.2375C77.4966 52.0283 77.5966 51.8646 77.724 51.8646C77.8513 51.8646 77.9604 52.0283 77.9604 52.2375V56.7037C77.9604 56.9129 77.8604 57.0766 77.724 57.0766C77.5875 57.0766 77.4966 56.9129 77.4966 56.7037ZM78.4243 73.3676H77.733V68.2101H78.4243V73.3676ZM78.9974 65.2539H78.1788V62.7434C78.1788 62.2977 78.3607 61.9339 78.5881 61.9339C78.8155 61.9339 78.9974 62.2977 78.9974 62.7434V65.2539ZM78.3607 56.7037V52.2375C78.3607 52.0283 78.4607 51.8646 78.5881 51.8646C78.7154 51.8646 78.8246 52.0283 78.8246 52.2375V56.7037C78.8246 56.9129 78.7154 57.0766 78.5881 57.0766C78.4607 57.0766 78.3607 56.9129 78.3607 56.7037ZM80.2345 57.7042H80.0889V37.1563H80.2345V57.7042ZM77.3601 36.3922C77.3601 36.0648 77.5238 35.801 77.724 35.801C77.9241 35.801 78.0969 36.0648 78.0969 36.3922V38.2387H77.3601V36.3922ZM77.8786 42.7867C79.0338 42.7867 79.9434 44.1602 79.9434 45.9067C79.9434 47.6531 79.0338 49.0266 77.8786 49.0266C76.7234 49.0266 75.8138 47.6531 75.8138 45.9067C75.8138 44.1602 76.7234 42.7867 77.8786 42.7867ZM75.4772 37.1563H75.6228V57.7042H75.4772V37.1563Z" fill="#4D4D4D"/>
<path d="M96.0111 43.7507V47.5164H99.6768V43.7507C99.6768 43.0503 98.8581 42.4863 97.8393 42.4863C96.8206 42.4863 96.002 43.0503 96.002 43.7507M99.513 47.3436H98.7035V47.4164H96.9934V47.3436H96.1839V43.7507C96.1839 43.1412 96.9297 42.6501 97.8484 42.6501C98.7671 42.6501 99.513 43.1412 99.513 43.7507V47.3436Z" fill="#4D4D4D"/>
<path d="M80.983 63.9973H94.6908V62.0689H81.2013V53.737C81.2013 52.1361 82.3202 50.8262 83.6937 50.8262C84.6124 50.8262 85.4219 51.4084 85.8494 52.2725C86.286 51.4084 87.0865 50.8262 88.0052 50.8262C88.9239 50.8262 89.7334 51.4084 90.1609 52.2725C90.5975 51.4084 91.398 50.8262 92.3167 50.8262C93.4173 50.8262 94.336 51.6631 94.6726 52.8092V50.2168H80.9648V63.9973H80.983Z" fill="#4D4D4D"/>
<path d="M92.3426 51.499C91.3421 51.499 90.5234 52.4996 90.5234 53.7366H89.8503C89.8503 52.5087 89.0317 51.499 88.0311 51.499C87.0305 51.499 86.2119 52.4996 86.2119 53.7366H85.5388C85.5388 52.5087 84.7202 51.499 83.7196 51.499C82.719 51.499 81.9004 52.4996 81.9004 53.7366V61.3955H82.1642V54.4734C82.1642 53.2182 82.8191 52.2085 83.6286 52.2085C84.4382 52.2085 85.0931 53.2273 85.0931 54.4734V61.3955H86.3029V54.4734C86.3029 53.2182 87.0215 52.2085 87.9038 52.2085C88.7861 52.2085 89.4956 53.2273 89.4956 54.4734V61.3955H90.9237V54.4734C90.9237 53.2182 91.6059 52.2085 92.4518 52.2085C93.2977 52.2085 93.9799 53.2273 93.9799 54.4734V61.3955H94.1618V53.7366C94.1618 52.5087 93.3432 51.499 92.3426 51.499Z" fill="#4D4D4D"/>
<path d="M92.34 50.8271C91.4213 50.8271 90.6117 51.4093 90.1842 52.2734C89.7476 51.4093 88.9471 50.8271 88.0284 50.8271C87.1097 50.8271 86.3002 51.4093 85.8727 52.2734C85.4361 51.4093 84.6356 50.8271 83.7169 50.8271C82.3434 50.8271 81.2246 52.1279 81.2246 53.7379V62.0698H94.8505V53.7379C94.8505 53.4104 94.7959 53.1012 94.7049 52.8101C94.3684 51.664 93.4497 50.8271 92.3491 50.8271M94.1592 61.3967H93.9772V61.5241H90.921V61.3967H89.4838V61.5241H86.2911V61.3967H85.0813V61.5241H82.1433V61.3967H81.8795V53.7379C81.8795 52.5099 82.6982 51.5003 83.6987 51.5003C84.6993 51.5003 85.5179 52.5008 85.5179 53.7379H86.191C86.191 52.5099 87.0097 51.5003 88.0102 51.5003C89.0108 51.5003 89.8295 52.5008 89.8295 53.7379H90.5026C90.5026 52.5099 91.3212 51.5003 92.3218 51.5003C93.3223 51.5003 94.141 52.5008 94.141 53.7379V61.3967H94.1592Z" fill="#4D4D4D"/>
<path d="M82.0395 46.0333C82.7399 46.0333 83.2857 46.8156 83.2857 47.807C83.2857 48.7985 82.7399 49.5808 82.0395 49.5808C81.5847 49.5808 81.2027 49.2533 80.9844 48.7439V49.8718H94.6921V48.089C94.6011 48.944 94.0918 49.5717 93.4732 49.5717C92.7728 49.5717 92.2271 48.7894 92.2271 47.7979C92.2271 46.8065 92.7728 46.0242 93.4732 46.0242C94.1009 46.0242 94.6011 46.6518 94.6921 47.5069V43.6865H80.9844V46.8519C81.2027 46.3517 81.5847 46.0151 82.0395 46.0151M90.6171 46.0333C91.3175 46.0333 91.8632 46.8156 91.8632 47.807C91.8632 48.7985 91.3175 49.5808 90.6171 49.5808C89.9167 49.5808 89.3709 48.7985 89.3709 47.807C89.3709 46.8156 89.9167 46.0333 90.6171 46.0333ZM87.7609 46.0333C88.4613 46.0333 89.0071 46.8156 89.0071 47.807C89.0071 48.7985 88.4613 49.5808 87.7609 49.5808C87.0605 49.5808 86.5148 48.7985 86.5148 47.807C86.5148 46.8156 87.0605 46.0333 87.7609 46.0333ZM84.9048 46.0333C85.6052 46.0333 86.1509 46.8156 86.1509 47.807C86.1509 48.7985 85.6052 49.5808 84.9048 49.5808C84.2044 49.5808 83.6586 48.7985 83.6586 47.807C83.6586 46.8156 84.2044 46.0333 84.9048 46.0333Z" fill="#4D4D4D"/>
<path d="M82.0347 48.9073C82.2984 48.9073 82.5986 48.4343 82.5986 47.8067C82.5986 47.179 82.2984 46.7061 82.0347 46.7061C81.7709 46.7061 81.4707 47.179 81.4707 47.8067C81.4707 48.4343 81.7709 48.9073 82.0347 48.9073Z" fill="#4D4D4D"/>
<path d="M93.4741 46.7061C93.2103 46.7061 92.9102 47.179 92.9102 47.8067C92.9102 48.4343 93.2103 48.9073 93.4741 48.9073C93.7379 48.9073 94.0381 48.4343 94.0381 47.8067C94.0381 47.179 93.7379 46.7061 93.4741 46.7061Z" fill="#4D4D4D"/>
<path d="M90.6147 48.9073C90.8785 48.9073 91.1787 48.4343 91.1787 47.8067C91.1787 47.179 90.8785 46.7061 90.6147 46.7061C90.351 46.7061 90.0508 47.179 90.0508 47.8067C90.0508 48.4343 90.351 48.9073 90.6147 48.9073Z" fill="#4D4D4D"/>
<path d="M87.7651 48.9073C88.0289 48.9073 88.3291 48.4343 88.3291 47.8067C88.3291 47.179 88.0289 46.7061 87.7651 46.7061C87.5013 46.7061 87.2012 47.179 87.2012 47.8067C87.2012 48.4343 87.5013 48.9073 87.7651 48.9073Z" fill="#4D4D4D"/>
<path d="M84.9018 48.9073C85.1656 48.9073 85.4658 48.4343 85.4658 47.8067C85.4658 47.179 85.1656 46.7061 84.9018 46.7061C84.6381 46.7061 84.3379 47.179 84.3379 47.8067C84.3379 48.4343 84.6381 48.9073 84.9018 48.9073Z" fill="#4D4D4D"/>
<path d="M94.6866 40.1855H90.084V40.6403H94.6866V40.1855Z" fill="#4D4D4D"/>
<path d="M85.4414 40.1855H80.9844V40.6403H85.4414V40.1855Z" fill="#4D4D4D"/>
<path d="M94.6866 40.9854H90.084V41.4402H94.6866V40.9854Z" fill="#4D4D4D"/>
<path d="M85.4414 40.9854H80.9844V41.4402H85.4414V40.9854Z" fill="#4D4D4D"/>
<path d="M85.4414 43.1327V41.7773H80.9844V43.3601H94.7012V41.7773H90.0895V43.1327H85.4414Z" fill="#4D4D4D"/>
<path d="M88.025 67.0186C87.0244 67.0186 86.2148 68.0373 86.2148 69.2835V75.9327H89.8442V69.2835C89.8442 68.0282 89.0346 67.0186 88.034 67.0186" fill="#4D4D4D"/>
<path d="M87.1874 40.1308V42.4867H88.3244V40.1308C88.3244 39.9944 88.3426 39.867 88.3699 39.7488C88.2698 39.3849 88.0424 39.1484 87.7513 39.1484C87.4603 39.1484 87.2329 39.3849 87.1328 39.7488C87.1601 39.867 87.1783 39.9944 87.1783 40.1308" fill="#4D4D4D"/>
<path d="M88.3242 40.1308V42.4867H89.6522V40.1308C89.6522 39.5578 89.3703 39.1484 88.9882 39.1484C88.6972 39.1484 88.4698 39.3849 88.3697 39.7488C88.3424 39.867 88.3242 39.9944 88.3242 40.1308Z" fill="#4D4D4D"/>
<path d="M97.8433 43.9043C97.3703 43.9043 96.9883 44.2863 96.9883 44.7593V47.4245H98.6892V44.7593C98.6892 44.2863 98.3072 43.9043 97.8342 43.9043" fill="#4D4D4D"/>
<path d="M109.607 64.2529C109.425 64.2529 109.262 64.5713 109.262 64.926V67.2091H109.953V64.926C109.953 64.5622 109.789 64.2529 109.607 64.2529Z" fill="#4D4D4D"/>
<path d="M107.543 64.2529C107.379 64.2529 107.197 64.5258 107.197 64.926V67.2091H107.889V64.926C107.889 64.5258 107.707 64.2529 107.543 64.2529Z" fill="#4D4D4D"/>
<path d="M105.471 64.2529C105.307 64.2529 105.125 64.5258 105.125 64.926V67.2091H105.816V64.926C105.816 64.5622 105.653 64.2529 105.471 64.2529Z" fill="#4D4D4D"/>
<path d="M103.4 64.2529C103.218 64.2529 103.055 64.5713 103.055 64.926V67.2091H103.746V64.926C103.746 64.5167 103.564 64.2529 103.4 64.2529Z" fill="#4D4D4D"/>
<path d="M111.467 64.2529C111.285 64.2529 111.121 64.5713 111.121 64.926V67.2091H111.812V64.926C111.812 64.5258 111.63 64.2529 111.467 64.2529Z" fill="#4D4D4D"/>
<path d="M85.8672 40.1308V42.4867H87.1952V40.1308C87.1952 39.9944 87.177 39.867 87.1497 39.7488C87.0588 39.3849 86.8223 39.1484 86.5312 39.1484C86.1492 39.1484 85.8672 39.5669 85.8672 40.1308Z" fill="#4D4D4D"/>
<path d="M64.3076 66.1816C64.3076 66.1816 64.1621 66.3636 64.1621 66.7183V68.5648H64.4623V66.7183C64.4623 66.3636 64.3531 66.1816 64.3076 66.1816Z" fill="#4D4D4D"/>
<path d="M63.1683 66.1816C63.1683 66.1816 63.0137 66.3636 63.0137 66.7183V68.5648H63.3138V66.7183C63.3138 66.3636 63.2047 66.1816 63.1683 66.1816Z" fill="#4D4D4D"/>
<path d="M68.2347 66.1816C68.2347 66.1816 68.0801 66.3636 68.0801 66.7183V68.5648H68.3802V66.7183C68.3802 66.3636 68.2711 66.1816 68.2347 66.1816Z" fill="#4D4D4D"/>
<path d="M67.0843 66.1816C67.0843 66.1816 66.9297 66.3636 66.9297 66.7183V68.5648H67.2299V66.7183C67.2299 66.3636 67.1207 66.1816 67.0843 66.1816Z" fill="#4D4D4D"/>
<path d="M72.1429 66.1816C72.1429 66.1816 71.9883 66.3636 71.9883 66.7183V68.5648H72.2885V66.7183C72.2885 66.3636 72.1793 66.1816 72.1429 66.1816Z" fill="#4D4D4D"/>
<path d="M71.0062 66.1816C71.0062 66.1816 70.8516 66.3636 70.8516 66.7183V68.5648H71.1517V66.7183C71.1517 66.3636 71.0426 66.1816 71.0062 66.1816Z" fill="#4D4D4D"/>
<path d="M94.2668 69.9377C94.2668 69.0281 93.6755 68.2822 92.9478 68.2822C92.2201 68.2822 91.6289 69.019 91.6289 69.9377V75.0679H94.2668V69.9377Z" fill="#4D4D4D"/>
<path d="M84.0597 69.9377C84.0597 69.0281 83.4685 68.2822 82.7408 68.2822C82.0131 68.2822 81.4219 69.019 81.4219 69.9377V75.0679H84.0597V69.9377Z" fill="#4D4D4D"/>
<path d="M77.9902 47.9438C78.1358 47.9165 78.2813 47.8529 78.4087 47.7437L77.9902 46.5703V47.9529V47.9438Z" fill="#4D4D4D"/>
<path d="M77.1622 44.2686C77.053 44.405 76.953 44.5778 76.8711 44.7779L77.5715 45.4328L77.1531 44.2686H77.1622Z" fill="#4D4D4D"/>
<path d="M76.7804 45.0859C76.7258 45.2861 76.6985 45.5044 76.6895 45.7318H77.4808L76.7804 45.0859Z" fill="#4D4D4D"/>
<path d="M77.3535 47.7444C77.4809 47.8535 77.6264 47.9263 77.7719 47.9536V46.5801L77.3535 47.7535V47.7444Z" fill="#4D4D4D"/>
<path d="M76.6777 46.0879C76.6868 46.3153 76.7232 46.5336 76.7778 46.7337L77.4691 46.0879H76.6777Z" fill="#4D4D4D"/>
<path d="M77.3457 48.1523C77.5094 48.2797 77.6914 48.3525 77.8824 48.3525C78.0734 48.3525 78.2553 48.2797 78.419 48.1523C78.2553 48.2433 78.0734 48.307 77.8824 48.307C77.6914 48.307 77.5094 48.2524 77.3457 48.1523Z" fill="#4D4D4D"/>
<path d="M78.5903 47.552C78.6994 47.4064 78.7995 47.2427 78.8814 47.0426L78.1719 46.3877L78.5903 47.552Z" fill="#4D4D4D"/>
<path d="M78.4268 43.6698C78.2631 43.5425 78.0721 43.4697 77.8902 43.4697C77.7083 43.4697 77.5172 43.5425 77.3535 43.6698C77.5172 43.5789 77.6992 43.5152 77.8902 43.5152C78.0812 43.5152 78.2631 43.5698 78.4268 43.6698Z" fill="#4D4D4D"/>
<path d="M77.7719 43.8682C77.6173 43.8955 77.4809 43.9591 77.3535 44.0774L77.7719 45.2508V43.8682Z" fill="#4D4D4D"/>
<path d="M76.8828 47.0426C76.9647 47.2336 77.0556 47.4064 77.1739 47.5429L77.5923 46.3877L76.8919 47.0426H76.8828Z" fill="#4D4D4D"/>
<path d="M77.9902 45.2599L78.4087 44.0774C78.2813 43.9682 78.1358 43.8955 77.9902 43.8682V45.2508V45.2599Z" fill="#4D4D4D"/>
<path d="M78.9836 46.7435C79.0382 46.5434 79.0655 46.3251 79.0837 46.0977H78.2832L78.9836 46.7435Z" fill="#4D4D4D"/>
<path d="M79.0837 45.734C79.0746 45.5066 79.0382 45.2883 78.9836 45.0791L78.2832 45.734H79.0837Z" fill="#4D4D4D"/>
<path d="M78.8814 44.7779C78.7995 44.5778 78.6994 44.4141 78.5903 44.2686L78.1719 45.4328L78.8814 44.7779Z" fill="#4D4D4D"/>
<path d="M77.8832 49.026C79.0384 49.026 79.948 47.6525 79.948 45.9061C79.948 44.1596 79.0384 42.7861 77.8832 42.7861C76.728 42.7861 75.8184 44.1596 75.8184 45.9061C75.8184 47.6525 76.728 49.026 77.8832 49.026ZM77.8832 43.4683C78.0742 43.4683 78.2561 43.5411 78.4198 43.6684C79.0111 44.005 79.4295 44.86 79.4295 45.9061C79.4295 46.9521 79.0111 47.8162 78.4198 48.1437C78.2561 48.271 78.0742 48.3438 77.8832 48.3438C77.6921 48.3438 77.5102 48.271 77.3465 48.1437C76.7553 47.8071 76.3368 46.9521 76.3368 45.9061C76.3368 44.86 76.7553 43.9959 77.3465 43.6684C77.5102 43.5411 77.6921 43.4683 77.8832 43.4683Z" fill="#4D4D4D"/>
<path d="M77.9902 43.8688C77.9902 43.8688 77.9174 43.8506 77.881 43.8506C77.8447 43.8506 77.8083 43.8688 77.7719 43.8688V45.2514L77.3535 44.078C77.2898 44.1326 77.2261 44.1962 77.1715 44.269L77.59 45.4333L76.8896 44.7784C76.8532 44.8784 76.8168 44.9785 76.7895 45.0876L77.4899 45.7335H76.6986C76.6986 45.788 76.6895 45.8426 76.6895 45.9063C76.6895 45.97 76.6895 46.0245 76.6986 46.0882H77.4899L76.7986 46.734C76.8259 46.8432 76.8623 46.9523 76.8987 47.0433L77.5991 46.3884L77.1897 47.5436C77.2443 47.6163 77.308 47.68 77.3717 47.7346L77.7901 46.5612V47.9347C77.7901 47.9347 77.8628 47.9529 77.8992 47.9529C77.9356 47.9529 77.972 47.9438 78.0084 47.9347V46.5612L78.4268 47.7346C78.4905 47.68 78.5541 47.6163 78.6087 47.5436L78.1903 46.3793L78.8998 47.0342C78.9362 46.9341 78.9726 46.8341 78.9998 46.7249L78.2995 46.0791H79.0999C79.0999 46.0154 79.109 45.9609 79.109 45.8972C79.109 45.8335 79.109 45.7789 79.0999 45.7244H78.2995L78.9998 45.0695C78.9726 44.9603 78.9362 44.8602 78.8998 44.7602L78.1903 45.4151L78.6087 44.2508C78.5541 44.178 78.4905 44.1144 78.4268 44.0598L78.0084 45.2423V43.8597L77.9902 43.8688Z" fill="#4D4D4D"/>
<path d="M76.7669 68.375H76.4121V73.1959H76.7669V68.375Z" fill="#4D4D4D"/>
<path d="M78.2571 68.375H77.9023V73.1959H78.2571V68.375Z" fill="#4D4D4D"/>
<path d="M100.949 53.6476V56.904L113.402 57.004L109.454 52.9199H101.422L100.949 53.6476Z" fill="#4D4D4D"/>
<path d="M104.648 47.9434L102.92 50.5994H107.213L104.648 47.9434Z" fill="#4D4D4D"/>
<path d="M107.62 51.0176H102.654L101.689 52.5002H109.057L107.62 51.0176Z" fill="#4D4D4D"/>
<path d="M101.422 52.9194H109.454H109.636L109.118 52.501H109.054H101.686H101.595L101.322 52.9194H101.422Z" fill="#4D4D4D"/>
<path d="M107.802 51.018L107.283 50.5996H107.22H102.926H102.835L102.562 51.018H102.653H107.62H107.802Z" fill="#4D4D4D"/>
<path d="M120.788 46.5164H121.662L123.426 41.1952L126.573 47.1804V46.5164H127.492V49.5362H127.565L129.12 49.5999V49.0542L122.453 38.1025L120.461 40.4766L117.195 47.9535L116.386 48.1991V45.3066H115.604L115.594 48.3811L114.039 52.2923H117.941V51.4464L119.542 49.6727L120.788 49.6545V46.5164Z" fill="#4D4D4D"/>
<path d="M124.972 49.8887H124.799V49.916H124.972V49.8887Z" fill="#4D4D4D"/>
<path d="M126.307 49.8978L126.543 49.8887H126.307V49.8978Z" fill="#4D4D4D"/>
<path d="M121.949 49.8887H121.703V49.9705H121.949V49.8887Z" fill="#4D4D4D"/>
<path d="M123.462 49.8887H123.289V49.9432H123.462V49.8887Z" fill="#4D4D4D"/>
<path d="M118.111 52.629H118.275V51.583L119.43 50.3004V50.0548H119.657L119.694 50.0094L120.785 49.9912V49.6546L119.539 49.6728L117.938 51.4465V52.2925H114.045L115.592 48.3812L115.601 45.3067H116.383V48.1992L117.202 47.9537L120.458 40.4767L122.45 38.1027L129.117 49.0543V49.6L127.562 49.5364H127.489V49.8729H127.553L129.117 49.9366L129.454 49.9548V49.3726V48.9633L122.486 37.5205L120.185 40.2766L116.947 47.6717L116.719 47.7444V44.9702H115.264V48.2811L113.545 52.629H113.791H118.111Z" fill="#4D4D4D"/>
<path d="M51.6059 49.3994H51.1875V49.5722H51.6059V49.3994Z" fill="#4D4D4D"/>
<path d="M56.7636 49.3994H56.3906V49.5722H56.7636V49.3994Z" fill="#4D4D4D"/>
<path d="M54.6804 42.504L56.7634 48.9076V48.3618L54.7168 42.0674L51.1875 48.853V49.226L54.6804 42.504Z" fill="#4D4D4D"/>
<path d="M53.6605 49.3994H53.1875V49.5722H53.6605V49.3994Z" fill="#4D4D4D"/>
<path d="M52.757 49.3994H52.0293V49.5722H52.757V49.3994Z" fill="#4D4D4D"/>
<path d="M54.8019 49.3994H54.0742V49.5722H54.8019V49.3994Z" fill="#4D4D4D"/>
<path d="M55.9601 49.3994H55.2324V49.5722H55.9601V49.3994Z" fill="#4D4D4D"/>
<path d="M119.566 67.599V66.9895H119.693V62.0322H119.566V61.4228H119.693V55.6832H119.566V55.0737H119.693V50.0527H119.657H119.43V50.2983V75.94H119.693V67.599H119.566Z" fill="#4D4D4D"/>
<path d="M117.975 56.6943H113.791V57.1128H117.975V56.6943Z" fill="#4D4D4D"/>
<path d="M117.975 61.7334H113.791V62.1518H117.975V61.7334Z" fill="#4D4D4D"/>
<path d="M63.3058 55.8203H62.8965V58.2217H63.3058V55.8203Z" fill="#4D4D4D"/>
<path d="M64.0441 55.8203H63.6348V58.2217H64.0441V55.8203Z" fill="#4D4D4D"/>
<path d="M66.6984 55.8203H66.2891V58.2217H66.6984V55.8203Z" fill="#4D4D4D"/>
<path d="M67.4386 55.8203H67.0293V58.2217H67.4386V55.8203Z" fill="#4D4D4D"/>
<path d="M70.0988 55.8203H69.6895V58.2217H70.0988V55.8203Z" fill="#4D4D4D"/>
<path d="M70.8351 55.8203H70.4258V58.2217H70.8351V55.8203Z" fill="#4D4D4D"/>
<path d="M73.4913 55.8203H73.082V58.2217H73.4913V55.8203Z" fill="#4D4D4D"/>
<path d="M74.216 55.8203H73.8066V58.2217H74.216V55.8203Z" fill="#4D4D4D"/>
<path d="M59.0595 49.7529H58.8867V49.8166V52.3089V52.5181V57.0207V57.2299V61.7233V61.9325V75.9404H59.0595V49.853V49.7529Z" fill="#4D4D4D"/>
<path d="M58.8939 52.3096H57.3203V52.5188H58.8939V52.3096Z" fill="#4D4D4D"/>
<path d="M56.7634 52.3096H51.1875V52.5188H56.7634V52.3096Z" fill="#4D4D4D"/>
<path d="M50.628 52.3096H49.0908H48.918V52.5188H49.0908H50.628V52.3096Z" fill="#4D4D4D"/>
<path d="M56.7634 57.0215H51.1875V57.2307H56.7634V57.0215Z" fill="#4D4D4D"/>
<path d="M58.8939 57.0215H57.3203V57.2307H58.8939V57.0215Z" fill="#4D4D4D"/>
<path d="M50.628 57.0215H49.0908H48.918V57.2307H49.0908H50.628V57.0215Z" fill="#4D4D4D"/>
<path d="M50.628 61.7236H49.0908H48.918V61.9328H49.0908H50.628V61.7236Z" fill="#4D4D4D"/>
<path d="M58.8939 61.7236H57.3203V61.9328H58.8939V61.7236Z" fill="#4D4D4D"/>
<path d="M56.7634 61.7236H51.1875V61.9328H56.7634V61.7236Z" fill="#4D4D4D"/>
<path d="M57.1558 45.2598H56.9375V75.9407H57.1558V45.2598Z" fill="#4D4D4D"/>
<path d="M51.0249 45.2598H50.8066V73.2482H51.0249V45.2598Z" fill="#4D4D4D"/>
<path d="M95.5401 36.9746H95.3945V57.5225H95.5401V36.9746Z" fill="#4D4D4D"/>
<path d="M100.126 36.9746H99.9805V57.5225H100.126V36.9746Z" fill="#4D4D4D"/>
<path d="M122.624 48.3696C122.952 48.3696 123.216 48.8608 123.279 49.5521H123.479C123.543 48.8699 123.807 48.3696 124.134 48.3696C124.462 48.3696 124.726 48.8608 124.789 49.5521H124.989C125.053 48.8699 125.317 48.3696 125.644 48.3696C125.972 48.3696 126.236 48.8608 126.299 49.5521H126.363V47.4509L123.507 42.0479L121.715 47.4327V49.5521H121.97C122.033 48.8699 122.297 48.3696 122.624 48.3696Z" fill="#4D4D4D"/>
<path d="M121.951 49.8721C121.951 49.7629 121.951 49.6538 121.97 49.5537H121.715V49.8903H121.96V49.8721H121.951Z" fill="#4D4D4D"/>
<path d="M126.358 47.4527V49.5539H126.294C126.303 49.654 126.312 49.7631 126.312 49.8723V49.8904H126.576V47.1707L123.429 41.1855L121.664 46.5158H121.719V47.4345L123.511 42.0497L126.367 47.4527H126.358Z" fill="#4D4D4D"/>
<path d="M123.286 49.8721V49.8903H123.459V49.8721C123.459 49.7629 123.459 49.6538 123.477 49.5537H123.277C123.277 49.6538 123.286 49.7629 123.286 49.8721Z" fill="#4D4D4D"/>
<path d="M124.796 49.8721V49.8903H124.969V49.8721C124.969 49.7629 124.969 49.6538 124.987 49.5537H124.787C124.787 49.6538 124.796 49.7629 124.796 49.8721Z" fill="#4D4D4D"/>
<path d="M121.378 67.5986H121.133V75.9397H121.378V67.5986Z" fill="#4D4D4D"/>
<path d="M121.371 55.6846H121.125V61.4242H121.371V55.6846Z" fill="#4D4D4D"/>
<path d="M121.371 62.0332H121.125V66.9905H121.371V62.0332Z" fill="#4D4D4D"/>
<path d="M121.371 46.8613H121.125V55.0841H121.371V46.8613Z" fill="#4D4D4D"/>
<path d="M127.156 62.0332H126.91V66.9905H127.156V62.0332Z" fill="#4D4D4D"/>
<path d="M127.156 67.5986H126.91V72.7561H127.156V67.5986Z" fill="#4D4D4D"/>
<path d="M127.156 46.8613H126.91V55.0841H127.156V46.8613Z" fill="#4D4D4D"/>
<path d="M127.156 55.6846H126.91V61.4242H127.156V55.6846Z" fill="#4D4D4D"/>
<path d="M123.29 49.871C123.29 49.7618 123.29 49.6527 123.271 49.5526C123.208 48.8613 122.953 48.3701 122.616 48.3701C122.28 48.3701 122.025 48.8704 121.962 49.5526C121.962 49.6527 121.943 49.7618 121.943 49.871V54.3644H123.28V49.871H123.29ZM122.125 54.1916V49.871C122.125 49.0887 122.389 48.5338 122.626 48.5338C122.862 48.5338 123.126 49.0796 123.126 49.871V54.1916H122.125Z" fill="#4D4D4D"/>
<path d="M124.804 49.871C124.804 49.7618 124.804 49.6527 124.795 49.5526C124.731 48.8613 124.476 48.3701 124.14 48.3701C123.803 48.3701 123.549 48.8704 123.485 49.5526C123.485 49.6527 123.467 49.7618 123.467 49.871V54.3644H124.804V49.871ZM123.64 54.1916V49.871C123.64 49.0887 123.903 48.5338 124.14 48.5338C124.376 48.5338 124.64 49.0796 124.64 49.871V54.1916H123.64Z" fill="#4D4D4D"/>
<path d="M126.311 49.871C126.311 49.7618 126.311 49.6527 126.293 49.5526C126.229 48.8613 125.974 48.3701 125.638 48.3701C125.301 48.3701 125.047 48.8704 124.983 49.5526C124.983 49.6527 124.965 49.7618 124.965 49.871V54.3644H126.302V49.8982V49.871H126.311ZM125.147 54.1916V49.871C125.147 49.0887 125.411 48.5338 125.647 48.5338C125.884 48.5338 126.147 49.0796 126.147 49.871V54.1916H125.147Z" fill="#4D4D4D"/>
<path d="M127.154 55.0752H126.909H126.572H121.706H121.369H121.124H120.787H119.696H119.568V55.6846H119.696H120.787H121.124H121.369H121.706H126.572H126.909H127.154H127.491H129.119H129.292V55.0752H129.119H127.491H127.154Z" fill="#4D4D4D"/>
<path d="M127.154 61.4229H126.909H126.572H121.706H121.369H121.124H120.787H119.696H119.568V62.0323H119.696H120.787H121.124H121.369H121.706H126.572H126.909H127.154H127.491H129.119H129.292V61.4229H129.119H127.491H127.154Z" fill="#4D4D4D"/>
<path d="M127.154 66.9902H126.909H126.572H121.706H121.369H121.124H120.787H119.696H119.568V67.5997H119.696H120.787H121.124H121.369H121.706H126.572H126.909H127.154H127.491H129.119H129.292V66.9902H129.119H127.491H127.154Z" fill="#4D4D4D"/>
<path d="M51.8585 49.3257C51.8585 49.1438 51.8403 49.0164 51.8131 48.9346C51.7949 49.0073 51.7676 49.1438 51.7676 49.3257V50.8811H51.8585V49.3257Z" fill="#4D4D4D"/>
<path d="M53.0148 49.3257C53.0148 49.1438 52.9966 49.0164 52.9693 48.9346C52.9511 49.0073 52.9238 49.1438 52.9238 49.3257V50.8811H53.0148V49.3257Z" fill="#4D4D4D"/>
<path d="M53.9113 49.3257C53.9113 49.1438 53.8931 49.0164 53.8658 48.9346C53.8476 49.0073 53.8203 49.1438 53.8203 49.3257V50.8811H53.9113V49.3257Z" fill="#4D4D4D"/>
<path d="M55.0695 49.3257C55.0695 49.1438 55.0513 49.0164 55.024 48.9346C55.0058 49.0073 54.9785 49.1438 54.9785 49.3257V50.8811H55.0695V49.3257Z" fill="#4D4D4D"/>
<path d="M56.216 49.3257C56.216 49.1438 56.1978 49.0164 56.1705 48.9346C56.1523 49.0073 56.125 49.1438 56.125 49.3257V50.8811H56.216V49.3257Z" fill="#4D4D4D"/>
<path d="M136.961 58.1411V75.942H141.245V41.5591H141.9V39.376H144.265V28.3789C143.619 32.2538 138.908 32.4175 136.379 32.2265V58.1502H136.97L136.961 58.1411Z" fill="#4D4D4D"/>
<path d="M146.248 28.1602H144.338V39.3756H146.248V28.1602Z" fill="#4D4D4D"/>
<path d="M136.031 32.1904H134.939V58.1414H136.031V32.1904Z" fill="#4D4D4D"/>
<path d="M147.394 60.8232H146.957V65.4713H147.394V60.8232Z" fill="#4D4D4D"/>
<path d="M147.394 65.6357H146.957V70.2747H147.394V65.6357Z" fill="#4D4D4D"/>
<path d="M146.957 60.6608H147.394V56.5039H148.576V56.0127H146.957V60.6608Z" fill="#4D4D4D"/>
<path d="M145.645 70.448V70.2752H146.791V65.6362H145.645V65.4634H146.791V60.8153H145.645V60.6516H146.791V56.0035H145.645V55.8307H146.791V51.6374H145.645V51.4646H146.791V46.5164H145.645V46.3435H148.574V41.8774H148.028V39.6943H142.225V41.8774H141.57V75.9238H147.383V70.4298H145.645V70.448ZM143.317 73.5225H142.434V43.0781H143.317V73.5225ZM145.163 73.5225H144.281V43.0781H145.163V73.5225Z" fill="#4D4D4D"/>
<path d="M148.585 51.6455H146.957V55.8388H148.585V51.6455Z" fill="#4D4D4D"/>
<path d="M148.585 46.5244H146.957V51.4727H148.585V46.5244Z" fill="#4D4D4D"/>
<path d="M142.983 43.4131H142.773V73.1844H142.983V43.4131Z" fill="#4D4D4D"/>
<path d="M144.828 43.4131H144.619V73.1844H144.828V43.4131Z" fill="#4D4D4D"/>
<path d="M51.187 73.249H51.0142H50.805H50.6321H49.0858H49.0312V75.9414H52.2967V73.249H51.187Z" fill="#4D4D4D"/>
<path d="M129.122 72.7568H127.494H127.157H126.912H126.575H126.002V75.9404H129.868V72.7568H129.458H129.122Z" fill="#4D4D4D"/>
<path d="M41.9355 75.9422V74.4868V74.0229V73.75V73.2861V71.7671V71.5397V69.6477V69.4203V67.5193V67.2919V65.3999V65.1725V63.2805V63.0531V61.1611V60.9246V60.8428H39.2613H39.0885H37.8878H37.1328V75.9422H41.9355Z" fill="#4D4D4D"/>
<path d="M31.2813 55.9844H27.4609V75.9411H31.2813V55.9844Z" fill="#4D4D4D"/>
<path d="M26.7062 67.6807H22.4766V75.9399H26.7062V67.6807Z" fill="#4D4D4D"/>
<path d="M148.581 56.5029H147.398V60.6507V60.8235V65.4716V65.6444V70.2834V70.4471V75.9411H151.792V56.5029H148.927H148.581Z" fill="#4D4D4D"/>
<path d="M156.543 67.6807H152.195V75.9399H156.543V67.6807Z" fill="#4D4D4D"/>
<path d="M136.449 58.6504H133.057V75.9419H136.449V58.6504Z" fill="#4D4D4D"/>
<path d="M157.91 75.9414H156.546H152.198H151.789H147.395H141.583H141.237H136.962H136.453H133.06H132.56H129.976H129.867H126.001H121.708H121.371H121.126H120.789H119.698H119.434H118.279H118.115H113.794H113.449H101.051H100.887H89.8355H86.2153H74.8634H74.6906H62.038H61.7015H59.0636H58.8908H57.3172H57.1443H56.9351H56.7623H52.2962H49.0307H48.7487H47.8118H41.9358H37.1331H36.8238H31.6209H31.2843H27.464H27.1183H26.709H22.4794H21.1241L19.7051 81.3626H159.684L157.91 75.9414Z" fill="#4D4D4D"/>
<path d="M1.11139 83.001H183.387C183.387 83.001 183.441 82.1642 182.577 82.0823L160.628 80.7725L19.7037 81.391L2.18472 82.4097C2.18472 82.4097 1.10229 82.3643 1.11139 83.001Z" fill="#4D4D4D"/>
<path d="M114.056 61.888V61.4737V56.8978V75.855V61.888Z" fill="#4D4D4D"/>
<path d="M135.11 36.983C134.668 38.5297 133.443 39.1098 133.443 39.1098H133.278L133.904 57.8367H135.11V36.983Z" fill="#4D4D4D"/>
<path d="M133.051 57.8371H133.916L133.29 39.1102H133.456C133.456 39.1102 134.68 38.5301 135.122 36.9834V34.5435C134.892 33.54 134.386 32.3523 133.456 30.9252C133.456 30.9252 133.548 29.4152 133.124 29.2035H133.207L132.986 20.2727C133.216 20.1254 133.373 19.7848 133.373 19.3797C133.373 18.9561 133.189 18.5971 132.94 18.4682L132.48 -0.000976562L132.029 18.4682C131.78 18.5971 131.596 18.9561 131.596 19.3797C131.596 19.7756 131.752 20.1162 131.983 20.2727L131.762 29.2035C131.403 29.4152 131.504 30.9252 131.504 30.9252C127.388 37.1767 131.504 39.1102 131.504 39.1102H131.67L130.436 75.8551H133.051V57.8371Z" fill="#4D4D4D"/>
<path d="M30.8764 75.8551H36.1428V47.1386H30.057V55.3144H30.8764V75.8551Z" fill="#4D4D4D"/>
<path d="M35.5886 43.908H30.7089V45.8046H35.5886V43.908Z" fill="#4D4D4D"/>
<path d="M36.0532 45.9977H30.2344V46.9553H36.0532V45.9977Z" fill="#4D4D4D"/>
<path d="M45.5756 52.294H38.6243V54.2091H45.5756V52.294ZM42.7674 53.6382H42.2518V52.9201H42.7674V53.6382ZM43.817 52.9201H44.3326V53.6382H43.817V52.9201Z" fill="#4D4D4D"/>
<path d="M45.5756 48.0036H38.6243V49.9186H45.5756V48.0036ZM39.4345 49.2097H38.9189V48.4916H39.4345V49.2097ZM40.6775 49.2097H40.1619V48.4916H40.6775V49.2097ZM43.817 48.5008H44.3326V49.2189H43.817V48.5008Z" fill="#4D4D4D"/>
<path d="M38.4394 50.1483H37.2241V52.0634H38.4394V50.1483Z" fill="#4D4D4D"/>
<path d="M45.5756 54.4484H38.6243V56.3634H45.5756V54.4484ZM39.4345 55.6361H38.9189V54.9271H39.4345V55.6361ZM41.8836 55.5624H41.368V54.8535H41.8836V55.5624ZM43.817 54.9271H44.3326V55.6453H43.817V54.9271Z" fill="#4D4D4D"/>
<path d="M45.5756 50.1483H38.6243V52.0634H45.5756V50.1483ZM39.4345 51.3544H38.9189V50.6363H39.4345V51.3544ZM42.2426 50.6363H42.7582V51.3544H42.2426V50.6363Z" fill="#4D4D4D"/>
<path d="M38.4394 45.8492H37.2241V47.7643H38.4394V45.8492Z" fill="#4D4D4D"/>
<path d="M38.4394 48.0036H37.2241V49.9186H38.4394V48.0036Z" fill="#4D4D4D"/>
<path d="M45.5756 56.5931H38.6243V58.5081H45.5756V56.5931ZM39.4345 57.7808H38.9189V57.0627H39.4345V57.7808ZM40.1619 57.0627H40.6775V57.7808H40.1619V57.0627Z" fill="#4D4D4D"/>
<path d="M38.4394 35.114H37.2241V37.0291H38.4394V35.114Z" fill="#4D4D4D"/>
<path d="M45.5756 58.7388H38.6243V60.571H41.3219V60.6538H45.5756V58.7388ZM39.4345 59.9173H38.9189V59.1991H39.4345V59.9173ZM42.2426 59.2083H42.7582V59.9265H42.2426V59.2083Z" fill="#4D4D4D"/>
<path d="M38.4394 37.2597H37.2241V39.1748H38.4394V37.2597Z" fill="#4D4D4D"/>
<path d="M45.5743 60.8932H41.3206V62.8082H45.5743V60.8932ZM43.8157 61.3443H44.3313V62.0624H43.8157V61.3443Z" fill="#4D4D4D"/>
<path d="M45.5756 35.114H38.6243V37.0291H45.5756V35.114ZM39.4345 36.3662H38.9189V35.6573H39.4345V36.3662ZM40.6775 36.3662H40.1619V35.6573H40.6775V36.3662ZM42.7674 36.3662H42.2518V35.6573H42.7674V36.3662ZM43.817 35.6481H44.3326V36.357H43.817V35.6481Z" fill="#4D4D4D"/>
<path d="M45.5756 45.8492H38.6243V47.7643H45.5756V45.8492ZM41.368 46.4293H41.8836V47.1474H41.368V46.4293Z" fill="#4D4D4D"/>
<path d="M38.4394 43.7035H37.2241V45.6186H38.4394V43.7035Z" fill="#4D4D4D"/>
<path d="M38.4394 41.5588H37.2241V43.4739H38.4394V41.5588Z" fill="#4D4D4D"/>
<path d="M45.5756 43.7035H38.6243V45.6186H45.5756V43.7035ZM40.6775 44.9281H40.1619V44.2191H40.6775V44.9281ZM42.7674 44.9281H42.2518V44.2191H42.7674V44.9281ZM43.817 44.2191H44.3326V44.9281H43.817V44.2191Z" fill="#4D4D4D"/>
<path d="M45.5756 41.5588H38.6243V43.4739H45.5756V41.5588ZM38.9189 42.0744H39.4345V42.7833H38.9189V42.0744Z" fill="#4D4D4D"/>
<path d="M45.5756 39.4141H38.6243V41.3291H45.5756V39.4141ZM39.4345 40.6478H38.9189V39.9389H39.4345V40.6478ZM41.8836 40.6478H41.368V39.9389H41.8836V40.6478ZM43.817 39.9389H44.3326V40.6478H43.817V39.9389Z" fill="#4D4D4D"/>
<path d="M38.4394 58.7388H37.2241V60.571H38.4394V58.7388Z" fill="#4D4D4D"/>
<path d="M45.5756 37.2597H38.6243V39.1748H45.5756V37.2597ZM42.2426 37.7937H42.7582V38.5027H42.2426V37.7937Z" fill="#4D4D4D"/>
<path d="M38.4394 39.4141H37.2241V41.3291H38.4394V39.4141Z" fill="#4D4D4D"/>
<path d="M45.5743 65.1845H41.3206V67.0996H45.5743V65.1845Z" fill="#4D4D4D"/>
<path d="M38.4394 54.4484H37.2241V56.3634H38.4394V54.4484Z" fill="#4D4D4D"/>
<path d="M38.4394 56.5931H37.2241V58.5081H38.4394V56.5931Z" fill="#4D4D4D"/>
<path d="M45.5743 71.6293H41.3206V73.1669H45.5743V71.6293Z" fill="#4D4D4D"/>
<path d="M45.5743 73.6371H41.3206V73.9225H45.5743V73.6371Z" fill="#4D4D4D"/>
<path d="M45.5743 67.3293H41.3206V69.2443H45.5743V67.3293ZM41.8823 68.7747H41.3667V68.0566H41.8823V68.7747ZM43.8157 68.0566H44.3313V68.7747H43.8157V68.0566Z" fill="#4D4D4D"/>
<path d="M38.4394 52.294H37.2241V54.2091H38.4394V52.294Z" fill="#4D4D4D"/>
<path d="M45.5743 69.4827H41.3206V71.3977H45.5743V69.4827Z" fill="#4D4D4D"/>
<path d="M45.5743 63.0379H41.3206V64.9529H45.5743V63.0379ZM42.2413 63.5627H42.7569V64.2716H42.2413V63.5627Z" fill="#4D4D4D"/>
<path d="M47.14 28.7154H45.7497V30.078H47.14V31.2565H45.7497V32.7388H47.14V32.969H45.7497V34.884H47.14V35.1142H45.7497V37.0292H47.14V37.2594H45.7497V39.1837H47.14V39.4138H45.7497V41.3289H47.14V41.5591H45.7497V43.4741H47.14V43.7043H45.7497V45.6193H47.14V45.8495H45.7497V47.7738H47.14V48.0039H45.7497V49.919H47.14V50.1492H45.7497V52.0642H47.14V52.2944H45.7497V54.2186H47.14V54.4488H45.7497V56.3638H47.14V56.594H45.7497V58.5091H47.14V58.7392H45.7497V60.6543H47.14V60.8937H45.7497V62.8087H47.14V63.0389H45.7497V64.9539H47.14V65.1841H45.7497V67.0992H47.14V67.3293H45.7497V69.2536H47.14V69.4838H45.7497V71.3988H47.14V71.629H45.7497V73.1665H47.14V73.6361H45.7497V73.9123H47.14V74.3819H41.3212V75.855H47.2689V26.5517H46.7072V24.6551H45.2341V21.939H39.4337V24.6551H38.0067V26.5517H37.2241V27.5461H47.14V28.7154Z" fill="#4D4D4D"/>
<path d="M74.4213 56.3009V58.0871C74.4213 58.1699 74.3936 58.2344 74.3568 58.2344C74.32 58.2344 74.2924 58.1699 74.2924 58.0871V58.2344H72.4602V58.1975C72.4602 58.1975 72.4326 58.2344 72.4142 58.2344C72.3773 58.2344 72.3497 58.1699 72.3497 58.0871V56.3009H71.0055V58.0871C71.0055 58.1699 70.9779 58.2344 70.941 58.2344C70.9042 58.2344 70.8766 58.1699 70.8766 58.0871V58.2344H69.0444V58.1975C69.0444 58.1975 69.0168 58.2344 68.9984 58.2344C68.9615 58.2344 68.9339 58.1699 68.9339 58.0871V56.3009H67.5897V58.0871C67.5897 58.1699 67.5621 58.2344 67.5253 58.2344C67.4884 58.2344 67.4608 58.1699 67.4608 58.0871V58.2344H65.6286V58.1975C65.6286 58.1975 65.601 58.2344 65.5826 58.2344C65.5458 58.2344 65.5182 58.1699 65.5182 58.0871V56.3009H64.1739V58.0871C64.1739 58.1699 64.1463 58.2344 64.1095 58.2344C64.0726 58.2344 64.045 58.1699 64.045 58.0871V58.2344H62.2128V58.1975C62.2128 58.1975 62.1852 58.2344 62.1668 58.2344C62.13 58.2344 62.1024 58.1699 62.1024 58.0871V56.3009H61.7341V75.8565H74.541V56.3009H74.4213ZM62.3049 60.3335H63.2256V63.0312H62.3049V60.3335ZM62.4891 66.5206C62.4891 66.1616 62.5995 65.8025 62.8113 65.8025C63.0231 65.8025 63.1335 66.1616 63.1335 66.5206V68.5646H62.4891V66.5206ZM64.2568 74.1624H63.0507V70.6361H64.2568V74.1624ZM64.2936 68.5646H63.6491V66.5206C63.6491 66.1616 63.7596 65.8025 63.9714 65.8025C64.1831 65.8025 64.2936 66.1616 64.2936 66.5206V68.5646ZM64.7171 63.0312H63.7964V60.3335H64.7171V63.0312ZM66.0798 60.3335H67.0005V63.0312H66.0798V60.3335ZM66.4573 66.5206C66.4573 66.1616 66.5677 65.8025 66.7795 65.8025C66.9913 65.8025 67.1017 66.1616 67.1017 66.5206V68.5646H66.4573V66.5206ZM68.2986 74.1624H67.0925V70.6361H68.2986V74.1624ZM67.6081 68.5646V66.5206C67.6081 66.1616 67.7186 65.8025 67.9304 65.8025C68.1421 65.8025 68.2526 66.1616 68.2526 66.5206V68.5646H67.6081ZM68.492 63.0312H67.5713V60.3335H68.492V63.0312ZM71.1344 60.3335H72.0551V63.0312H71.1344V60.3335ZM69.6521 60.3335H70.5728V63.0312H69.6521V60.3335ZM70.4254 66.5206C70.4254 66.1616 70.5359 65.8025 70.7477 65.8025C70.9594 65.8025 71.0699 66.1616 71.0699 66.5206V68.5646H70.4254V66.5206ZM71.9538 74.1624H70.7477V70.6361H71.9538V74.1624ZM72.23 68.5646H71.5855V66.5206C71.5855 66.1616 71.696 65.8025 71.9078 65.8025C72.1195 65.8025 72.23 66.1616 72.23 66.5206V68.5646ZM74.1543 63.0312H73.2704V60.3335H74.1543V63.0312Z" fill="#4D4D4D"/>
<path d="M62.038 55.9588V52.8929C62.038 52.8101 62.0656 52.7456 62.1025 52.7456C62.1393 52.7456 62.1669 52.8101 62.1669 52.8929V53.6203L63.06 51.8341L63.9807 53.6663V52.9021C63.9807 52.8193 64.0083 52.7548 64.0451 52.7548C64.082 52.7548 64.1096 52.8193 64.1096 52.9021V55.9681H65.4538V52.9021C65.4538 52.8193 65.4814 52.7548 65.5183 52.7548C65.5551 52.7548 65.5827 52.8193 65.5827 52.9021V53.6295L66.4758 51.8433L67.3965 53.6755V52.9113C67.3965 52.8285 67.4241 52.764 67.4609 52.764C67.4977 52.764 67.5346 52.8285 67.5346 52.9113V55.9773H68.8788V52.9113C68.8788 52.8285 68.9064 52.764 68.9432 52.764C68.9801 52.764 69.0077 52.8285 69.0077 52.9113V53.6387L69.9008 51.8525L70.8215 53.6847V52.9206C70.8215 52.8377 70.8491 52.7732 70.8859 52.7732C70.9227 52.7732 70.9504 52.8377 70.9504 52.9206V55.9865H72.2946V52.9206C72.2946 52.8377 72.3222 52.7732 72.359 52.7732C72.3959 52.7732 72.4235 52.8377 72.4235 52.9206V53.6479L73.3165 51.8618L74.2372 53.6939V52.9298C74.2372 52.8469 74.2649 52.7824 74.3017 52.7824C74.3385 52.7824 74.3661 52.8469 74.3661 52.9298V55.9957H74.4214V49.8638H61.6145V55.9957H61.9828L62.038 55.9588Z" fill="#4D4D4D"/>
<path d="M61.6647 49.8178H74.4715V55.9588H74.4163V56.2995H74.6465V56.1246V49.4771H61.6647V49.8178Z" fill="#4D4D4D"/>
<path d="M72.3322 55.9586H70.988V56.2992H72.3322V55.9586Z" fill="#4D4D4D"/>
<path d="M65.466 55.9586H64.1218V56.2992H65.466V55.9586Z" fill="#4D4D4D"/>
<path d="M62.0329 55.9586H61.6647V56.2992H62.0329V55.9586Z" fill="#4D4D4D"/>
<path d="M68.9069 55.9586H67.5626V56.2992H68.9069V55.9586Z" fill="#4D4D4D"/>
<path d="M50.1339 52.1474H48.5687V56.7049H50.1339V52.1474Z" fill="#4D4D4D"/>
<path d="M56.3303 60.3325H55.0229V58.666C55.0229 58.3714 55.3268 58.132 55.695 58.132C55.9897 58.132 56.2382 58.2885 56.3303 58.4911V56.9075H50.6864V61.4557H56.3303V60.3233V60.3325ZM52.2792 60.3325H50.9258V58.666C50.9258 58.3714 51.2297 58.132 51.5979 58.132C51.9662 58.132 52.27 58.3714 52.27 58.666V60.3325H52.2792ZM54.3324 60.3325H52.979V58.666C52.979 58.3714 53.2828 58.132 53.6603 58.132C54.0378 58.132 54.3324 58.3714 54.3324 58.666V60.3325Z" fill="#4D4D4D"/>
<path d="M50.1339 56.9162H48.5687V61.4644H50.1339V56.9162Z" fill="#4D4D4D"/>
<path d="M58.4858 61.6762H56.893V75.8549H58.4858V61.6762Z" fill="#4D4D4D"/>
<path d="M50.6864 61.6762V73.1297H51.8097V75.8549H56.3303V61.6762H50.6864ZM52.8501 69.1523H51.644V65.5615H52.8501V69.1523ZM54.268 65.5615H55.4741V69.1523H54.268V65.5615Z" fill="#4D4D4D"/>
<path d="M50.1339 49.4135H48.5687V51.9362H50.1339V49.4135Z" fill="#4D4D4D"/>
<path d="M50.1339 61.6762H48.5687V73.1297H50.1339V61.6762Z" fill="#4D4D4D"/>
<path d="M56.3303 49.4135H55.9528V50.6656H55.5201V49.4135H54.7835V50.6656H54.3508V49.4135H53.6143V50.6656H53.1815V49.4135H52.712V50.6656H52.2792V49.4135H51.5427V50.6656H51.11V49.4135H50.6864V51.9362H56.3303V49.4135Z" fill="#4D4D4D"/>
<path d="M58.4858 49.4135H56.893V51.9362H58.4858V49.4135Z" fill="#4D4D4D"/>
<path d="M58.4858 52.1474H56.893V56.7049H58.4858V52.1474Z" fill="#4D4D4D"/>
<path d="M56.3303 52.1474H50.6864V56.7049H56.3303V52.1474ZM51.5703 56.2445V54.5781C51.5703 54.2834 51.6808 54.0441 51.8097 54.0441C51.9386 54.0441 52.0491 54.2834 52.0491 54.5781V56.2445H51.5703ZM53.2184 56.2445H52.7396V54.5781C52.7396 54.2834 52.8501 54.0441 52.979 54.0441C53.1079 54.0441 53.2184 54.2834 53.2184 54.5781V56.2445ZM54.1943 56.2445V54.5781C54.1943 54.2834 54.3048 54.0441 54.4337 54.0441C54.5626 54.0441 54.6731 54.2834 54.6731 54.5781V56.2445H54.1943ZM55.3728 56.2445V54.5781C55.3728 54.2834 55.4741 54.0441 55.6122 54.0441C55.7503 54.0441 55.8515 54.2834 55.8515 54.5781V56.2445H55.3728Z" fill="#4D4D4D"/>
<path d="M58.4858 56.9162H56.893V61.4644H58.4858V56.9162Z" fill="#4D4D4D"/>
<path d="M61.3297 51.2179L58.6597 49.4501V75.8557H61.3297V51.2179Z" fill="#4D4D4D"/>
<path d="M48.507 75.8546V73.1294H48.5714V61.6759H48.3965V61.4641H48.5714V56.9159H48.3965V56.7042H48.5714V52.1467H48.3965V51.9349H48.5714V49.4122H48.2492V48.5928H48.2216V75.8546H48.507Z" fill="#4D4D4D"/>
<path d="M56.3303 47.9396V44.6251H56.8919V49.072H58.7149L61.3297 50.8122V48.4276L56.8551 39.8283L55.3452 38.3736L50.6864 45.2327V48.4368L54.2587 41.5684L56.3303 47.9396Z" fill="#4D4D4D"/>
<path d="M50.1256 46.0614L48.588 48.3263V49.0721H50.1256V46.0614Z" fill="#4D4D4D"/>
<path d="M50.6864 45.2327L55.3452 38.3736L56.8551 39.8283L61.3297 48.4276V50.8122L58.7149 49.072H56.8919V49.4125H58.4847V49.348H58.6597L58.6597 49.4501L61.3297 51.2179L61.6703 51.4472V48.3813L57.1497 39.6439L55.2899 37.8393L50.6864 44.6248V45.2327Z" fill="#4D4D4D"/>
<path d="M51.11 49.1647H50.6864V49.4225H51.11V49.1647Z" fill="#4D4D4D"/>
<path d="M50.1191 49.4124V49.0717H48.5815V48.326L50.1191 46.0611V45.4442L48.2408 48.2155V49.4124H50.1191Z" fill="#4D4D4D"/>
<path d="M56.3293 49.1647H55.9518V49.4225H56.3293V49.1647Z" fill="#4D4D4D"/>
<path d="M52.2755 49.1647H51.5389V49.4225H52.2755V49.1647Z" fill="#4D4D4D"/>
<path d="M55.5196 49.1647H54.783V49.4225H55.5196V49.1647Z" fill="#4D4D4D"/>
<path d="M53.1903 49.1647H52.7116V49.4225H53.1903V49.1647Z" fill="#4D4D4D"/>
<path d="M54.3469 49.1647H53.6104V49.4225H54.3469V49.1647Z" fill="#4D4D4D"/>
<path d="M126.99 49.4858H126.962L126.723 49.495V54.0156H125.369V49.5134L125.194 49.5226V54.0156H123.841V49.5411H123.666V54.0156H122.313V49.5687H122.064V54.7338H126.99V49.4858Z" fill="#4D4D4D"/>
<path d="M118.592 51.1991V52.2579V75.8553H119.762V49.9101L118.592 51.1991Z" fill="#4D4D4D"/>
<path d="M121.136 55.352H120.031V61.1616H121.136V55.352Z" fill="#4D4D4D"/>
<path d="M126.99 61.7775H122.064V66.7953H126.99V61.7775ZM125.397 63.1033C125.397 62.6705 125.664 62.3115 125.986 62.3115C126.308 62.3115 126.575 62.6705 126.575 63.1033V65.5707H125.397V63.1033ZM123.252 62.3115C123.574 62.3115 123.841 62.6705 123.841 63.1033V65.5707H122.663V63.1033C122.663 62.6705 122.93 62.3115 123.252 62.3115Z" fill="#4D4D4D"/>
<path d="M126.99 55.352H122.064V61.1616H126.99V55.352ZM125.397 57.4788C125.397 57.0461 125.664 56.687 125.986 56.687C126.308 56.687 126.575 57.0369 126.575 57.4788V59.9463H125.397V57.4788ZM123.252 56.687C123.574 56.687 123.841 57.0369 123.841 57.4788V59.9463H122.663V57.4788C122.663 57.0461 122.93 56.687 123.252 56.687Z" fill="#4D4D4D"/>
<path d="M121.136 61.7775H120.031V66.7953H121.136V61.7775Z" fill="#4D4D4D"/>
<path d="M129.572 54.7348V49.5329L127.988 49.4685H127.923V54.7348H129.572Z" fill="#4D4D4D"/>
<path d="M120.029 54.7338H121.134V49.5871L120.029 49.6055L119.993 49.6515H120.029V54.7338Z" fill="#4D4D4D"/>
<path d="M129.572 55.352H127.923V61.1616H129.572V55.352Z" fill="#4D4D4D"/>
<path d="M126.99 72.6316V67.4112H122.064V75.854H126.401V72.6316H126.99ZM123.841 72.1068H122.663V69.6393C122.663 69.1974 122.93 68.8475 123.252 68.8475C123.574 68.8475 123.841 69.2066 123.841 69.6393V72.1068ZM125.397 69.6485C125.397 69.2066 125.664 68.8567 125.986 68.8567C126.308 68.8567 126.575 69.2158 126.575 69.6485V72.116H125.397V69.6485Z" fill="#4D4D4D"/>
<path d="M129.572 67.4112H127.923V72.6316H129.572V67.4112Z" fill="#4D4D4D"/>
<path d="M121.136 67.4112H120.031V75.854H121.136V67.4112Z" fill="#4D4D4D"/>
<path d="M129.572 61.7775H127.923V66.7953H129.572V61.7775Z" fill="#4D4D4D"/>
<path d="M118.601 52.2574H118.427V75.8548H118.601V52.2574Z" fill="#4D4D4D"/>
<path d="M129.571 49.5321V54.734H129.746V55.3509H129.571V61.1605H129.746V61.7774L129.572 61.7775V66.7953L129.746 66.7952V67.412H129.571V72.6324H129.911V49.5505L129.571 49.5321Z" fill="#4D4D4D"/>
<path d="M114.056 56.8978V61.4649H118.291V61.8884L114.056 61.888V66.8877H118.291V67.3113H114.056V75.8461H118.429V52.2487H114.056V56.3642H118.291V56.7877H114.056V56.843L114.102 56.8982L114.056 56.8978ZM115.98 65.654H115.456V63.0485H115.98V65.654ZM117.38 65.654H116.855V63.0485H117.38V65.654ZM115.98 71.7859H115.456V69.1803H115.98V71.7859ZM117.38 71.7859H116.855V69.1803H117.38V71.7859ZM115.98 55.3514H115.456V52.7459H115.98V55.3514ZM117.38 55.3514H116.855V52.7459H117.38V55.3514ZM116.855 57.69H117.38V60.2956H116.855V57.69ZM115.456 57.69H115.98V60.2956H115.456V57.69Z" fill="#4D4D4D"/>
<path d="M111.791 69.8809H111.607V72.4221H111.791V69.8809Z" fill="#4D4D4D"/>
<path d="M109.018 56.8612H101.165V75.8551H113.714V56.898L109.018 56.8612ZM111.347 58.9051H112.047V61.6764H111.347V58.9051ZM103.973 72.7708H103.107V69.5392H103.973V72.7708ZM103.024 67.1914V64.7055C103.024 64.2268 103.255 63.8493 103.549 63.8493C103.844 63.8493 104.074 64.2268 104.074 64.7055V67.1914H103.024ZM104.065 61.6856H103.015V58.9143H104.065V61.6856ZM106.063 72.7708H105.197V69.5392H106.063V72.7708ZM105.114 67.1914V64.7055C105.114 64.2268 105.345 63.8493 105.639 63.8493C105.934 63.8493 106.164 64.2268 106.164 64.7055V67.1914H105.114ZM106.155 61.6856H105.105V58.9143H106.155V61.6856ZM108.162 72.7708H107.296V69.5392H108.162V72.7708ZM107.204 67.1914V64.7055C107.204 64.2268 107.435 63.8493 107.729 63.8493C108.024 63.8493 108.254 64.2268 108.254 64.7055V67.1914H107.204ZM108.254 61.6856H107.204V58.9143H108.254V61.6856ZM110.252 72.7708H109.386V69.5392H110.252V72.7708ZM109.304 67.1914V64.7055C109.304 64.2268 109.534 63.8493 109.828 63.8493C110.123 63.8493 110.353 64.2268 110.353 64.7055V67.1914H109.304ZM110.344 61.6856H109.294V58.9143H110.344V61.6856ZM112.13 72.7708H111.265V69.5392H112.13V72.7708ZM111.173 67.1914V64.7055C111.173 64.2268 111.403 63.8493 111.697 63.8493C111.992 63.8493 112.222 64.2268 112.222 64.7055V67.1914H111.173Z" fill="#4D4D4D"/>
<path d="M103.632 69.8809H103.448V72.4221H103.632V69.8809Z" fill="#4D4D4D"/>
<path d="M105.723 69.8809H105.539V72.4221H105.723V69.8809Z" fill="#4D4D4D"/>
<path d="M107.821 69.8809H107.637V72.4221H107.821V69.8809Z" fill="#4D4D4D"/>
<path d="M109.912 69.8809H109.728V72.4221H109.912V69.8809Z" fill="#4D4D4D"/>
<path d="M80.1571 34.8467V36.4579C80.4517 36.4579 80.6819 36.8354 80.6819 37.305V39.3213H85.3682V36.3474C85.313 36.2646 85.267 36.1449 85.267 36.016V35.3439C85.267 35.0953 85.3959 34.8927 85.5432 34.8927C85.6905 34.8927 85.8194 35.0953 85.8194 35.3439V35.5372L87.6976 32.5726L89.6771 35.6845V35.3439C89.6771 35.0953 89.806 34.8927 89.9533 34.8927C90.1006 34.8927 90.2295 35.0953 90.2295 35.3439V36.016C90.2295 36.2001 90.1559 36.3659 90.0638 36.4303V39.3305H94.8974V37.3142C94.8974 36.8446 95.1368 36.4671 95.4222 36.4671V35.1598L94.9251 34.1286C94.9251 34.1286 90.2848 23.8536 89.9809 23.7523C89.9257 23.7339 89.8704 23.7247 89.8152 23.7063V22.3621C89.8152 22.2332 89.7508 22.1319 89.6771 22.1319C89.6034 22.1319 89.539 22.2332 89.539 22.3621V23.6234C87.8633 23.1723 86.4086 23.4485 85.7457 23.6326V22.3621C85.7457 22.2332 85.6813 22.1319 85.6076 22.1319C85.534 22.1319 85.4695 22.2332 85.4695 22.3621V23.7155C85.4051 23.7431 85.3682 23.7523 85.3682 23.7523C85.2025 24.1759 80.4241 34.1286 80.4241 34.1286L80.2215 34.5429C80.2215 34.7639 80.2215 34.8927 80.2215 34.8927L80.1663 34.8559L80.1571 34.8467Z" fill="#4D4D4D"/>
<path d="M89.6746 36.0077V35.6763H85.8169V36.0077C85.8169 36.1458 85.7801 36.2563 85.7156 36.3392H89.7667C89.7115 36.2563 89.6654 36.1366 89.6654 36.0077" fill="#4D4D4D"/>
<path d="M74.6465 56.1246L74.6464 75.8557H86.1366V69.1254C86.1366 67.8548 86.9561 66.8329 87.9688 66.8329C88.9816 66.8329 89.801 67.864 89.801 69.1254V75.8557H100.978V56.7973H100.914V52.958H100.978V37.3062C100.978 36.8366 100.739 36.4591 100.453 36.4591C100.435 36.4591 100.407 36.4591 100.389 36.4591V34.8387L99.0264 33.872L96.4668 33.9088L95.408 34.8295V36.4499C95.1226 36.4499 94.8832 36.8274 94.8832 37.2969V39.3133H95.0582V64.0984H80.4928V39.3133H80.6677V37.2969C80.6677 36.8274 80.4375 36.4499 80.1429 36.4499V34.8387L78.7803 33.872L76.2207 33.9088L75.1619 34.8295V36.4499C74.8673 36.4499 74.6371 36.8274 74.6371 37.2969V56.116L74.6465 56.1246ZM97.8939 73.5079H96.6786V67.772H97.8939V73.5079ZM97.3783 56.383C97.3783 56.5947 97.2771 56.7605 97.1389 56.7605C97.0008 56.7605 96.9088 56.5947 96.9088 56.383V51.8624C96.9088 51.6506 97.01 51.4849 97.1389 51.4849C97.2678 51.4849 97.3783 51.6506 97.3783 51.8624V56.383ZM97.7558 62.4964V65.0375H96.9272V62.4964C96.9272 62.0452 97.1113 61.677 97.3415 61.677C97.5717 61.677 97.7558 62.0452 97.7558 62.4964ZM97.7834 56.383V51.8624C97.7834 51.6506 97.8939 51.4849 98.0136 51.4849C98.1333 51.4849 98.2438 51.6506 98.2438 51.8624V56.383C98.2438 56.5947 98.1425 56.7605 98.0136 56.7605C97.8847 56.7605 97.7834 56.5947 97.7834 56.383ZM98.0688 62.4964C98.0688 62.0452 98.253 61.677 98.4832 61.677C98.7133 61.677 98.8975 62.0452 98.8975 62.4964V65.0375H98.0688V62.4964ZM98.6581 56.383V51.8624C98.6581 51.6506 98.7594 51.4849 98.8975 51.4849C99.0356 51.4849 99.1276 51.6506 99.1276 51.8624V56.383C99.1276 56.5947 99.0264 56.7605 98.8975 56.7605C98.7686 56.7605 98.6581 56.5947 98.6581 56.383ZM99.4131 73.5079H98.1977V67.772H99.4131V73.5079ZM100.076 36.4131H100.223V57.2116H100.076V36.4131ZM100.14 62.4964V65.0375H99.3118V62.4964C99.3118 62.0452 99.4959 61.677 99.7261 61.677C99.9563 61.677 100.14 62.0452 100.14 62.4964ZM99.7629 43.2723V47.0839H96.0525V43.2723C96.0525 42.5633 96.8904 41.9925 97.9123 41.9925C98.9343 41.9925 99.7721 42.5633 99.7721 43.2723M97.5348 35.8238C97.5348 35.4924 97.7006 35.2254 97.9031 35.2254C98.1057 35.2254 98.2714 35.4924 98.2714 35.8238V37.6928H97.5256V35.8238H97.5348ZM95.4265 36.4131H95.5738V57.2116H95.4265V36.4131ZM91.6148 69.7791C91.6148 68.8584 92.2132 68.1034 92.9498 68.1034C93.6863 68.1034 94.2848 68.8492 94.2848 69.7791V74.9718H91.6148V69.7791ZM81.2754 69.7791C81.2754 68.8584 81.8738 68.1034 82.6104 68.1034C83.3469 68.1034 83.9454 68.8492 83.9454 69.7791V74.9718H81.2754V69.7791ZM76.4601 62.4964V65.0375H75.6315V62.4964C75.6315 62.0452 75.8156 61.677 76.0458 61.677C76.276 61.677 76.4601 62.0452 76.4601 62.4964ZM76.4417 56.383V51.8624C76.4417 51.6506 76.543 51.4849 76.6719 51.4849C76.8008 51.4849 76.9113 51.6506 76.9113 51.8624V56.383C76.9113 56.5947 76.8008 56.7605 76.6719 56.7605C76.543 56.7605 76.4417 56.5947 76.4417 56.383ZM76.7363 73.2501H76.0366V68.0298H76.7363V73.2501ZM76.7639 62.4964C76.7639 62.0452 76.9481 61.677 77.1783 61.677C77.4084 61.677 77.5926 62.0452 77.5926 62.4964V65.0375H76.7639V62.4964ZM77.3164 56.383V51.8624C77.3164 51.6506 77.4176 51.4849 77.5465 51.4849C77.6754 51.4849 77.7859 51.6506 77.7859 51.8624V56.383C77.7859 56.5947 77.6847 56.7605 77.5465 56.7605C77.4084 56.7605 77.3164 56.5947 77.3164 56.383ZM78.2555 73.2501H77.5557V68.0298H78.2555V73.2501ZM78.8355 65.0375H78.0069V62.4964C78.0069 62.0452 78.191 61.677 78.4212 61.677C78.6514 61.677 78.8355 62.0452 78.8355 62.4964V65.0375ZM78.191 56.383V51.8624C78.191 51.6506 78.2923 51.4849 78.4212 51.4849C78.5501 51.4849 78.6606 51.6506 78.6606 51.8624V56.383C78.6606 56.5947 78.5501 56.7605 78.4212 56.7605C78.2923 56.7605 78.191 56.5947 78.191 56.383ZM80.0877 57.3957H79.9404V36.5972H80.0877V57.3957ZM77.1783 35.8238C77.1783 35.4924 77.344 35.2254 77.5465 35.2254C77.7491 35.2254 77.924 35.4924 77.924 35.8238V37.6928H77.1783V35.8238ZM77.7031 42.2963C78.8723 42.2963 79.793 43.6866 79.793 45.4543C79.793 47.222 78.8723 48.6123 77.7031 48.6123C76.5338 48.6123 75.6131 47.222 75.6131 45.4543C75.6131 43.6866 76.5338 42.2963 77.7031 42.2963ZM75.2724 36.5972H75.4197V57.3957H75.2724V36.5972Z" fill="#4D4D4D"/>
<path d="M96.055 43.2716V47.0833H99.7654V43.2716C99.7654 42.5626 98.9368 41.9918 97.9056 41.9918C96.8744 41.9918 96.0458 42.5626 96.0458 43.2716M99.5997 46.9083H98.7803V46.982H97.0494V46.9083H96.2299V43.2716C96.2299 42.6547 96.9849 42.1575 97.9148 42.1575C98.8447 42.1575 99.5997 42.6547 99.5997 43.2716V46.9083Z" fill="#4D4D4D"/>
<path d="M94.7216 63.7661V61.8142H81.0677V53.3806C81.0677 51.7602 82.2001 50.4344 83.5904 50.4344C84.5203 50.4344 85.3397 51.0237 85.7724 51.8983C86.2144 51.0237 87.0246 50.4344 87.9545 50.4344C88.8844 50.4344 89.7038 51.0237 90.1365 51.8983C90.5785 51.0237 91.3887 50.4344 92.3186 50.4344C93.4326 50.4344 94.3625 51.2815 94.7032 52.4415V49.8176H80.8283V63.7661H94.7216Z" fill="#4D4D4D"/>
<path d="M92.3429 51.1156C91.3302 51.1156 90.5016 52.1283 90.5016 53.3805H89.8202C89.8202 52.1375 88.9916 51.1156 87.9788 51.1156C86.9661 51.1156 86.1375 52.1283 86.1375 53.3805H85.4561C85.4561 52.1375 84.6275 51.1156 83.6148 51.1156C82.602 51.1156 81.7734 52.1283 81.7734 53.3805V61.1327H82.0404V54.1262C82.0404 52.8557 82.7033 51.8337 83.5227 51.8337C84.3421 51.8337 85.005 52.8649 85.005 54.1262V61.1327H86.2295V54.1262C86.2295 52.8557 86.9569 51.8337 87.8499 51.8337C88.743 51.8337 89.4612 52.8649 89.4612 54.1262V61.1327H90.9067V54.1262C90.9067 52.8557 91.5972 51.8337 92.4534 51.8337C93.3097 51.8337 94.0002 52.8649 94.0002 54.1262V61.1327H94.1843V53.3805C94.1843 52.1375 93.3557 51.1156 92.3429 51.1156Z" fill="#4D4D4D"/>
<path d="M92.3415 50.4347C91.4116 50.4347 90.5922 51.024 90.1594 51.8986C89.7175 51.024 88.9073 50.4347 87.9774 50.4347C87.0475 50.4347 86.2281 51.024 85.7953 51.8986C85.3534 51.024 84.5432 50.4347 83.6133 50.4347C82.2231 50.4347 81.0906 51.7513 81.0906 53.381V61.8145H94.8826V53.381C94.8826 53.0495 94.8274 52.7365 94.7353 52.4419C94.3946 51.2818 93.4647 50.4347 92.3507 50.4347M94.1829 61.1332H93.9987V61.2621H90.9052V61.1332H89.4505V61.2621H86.2189V61.1332H84.9943V61.2621H82.0205V61.1332H81.7535V53.381C81.7535 52.138 82.5821 51.1161 83.5949 51.1161C84.6077 51.1161 85.4363 52.1288 85.4363 53.381H86.1176C86.1176 52.138 86.9462 51.1161 87.959 51.1161C88.9717 51.1161 89.8004 52.1288 89.8004 53.381H90.4817C90.4817 52.138 91.3103 51.1161 92.3231 51.1161C93.3358 51.1161 94.1645 52.1288 94.1645 53.381V61.1332H94.1829Z" fill="#4D4D4D"/>
<path d="M81.9156 45.5823C82.6245 45.5823 83.1769 46.3741 83.1769 47.3777C83.1769 48.3812 82.6245 49.173 81.9156 49.173C81.4552 49.173 81.0686 48.8416 80.8476 48.326V49.4676H94.7225V47.6631C94.6304 48.5285 94.1148 49.1638 93.4887 49.1638C92.7798 49.1638 92.2274 48.372 92.2274 47.3685C92.2274 46.3649 92.7798 45.5731 93.4887 45.5731C94.124 45.5731 94.6304 46.2084 94.7225 47.0738V43.2069H80.8476V46.4109C81.0686 45.9045 81.4552 45.5639 81.9156 45.5639M90.5978 45.5823C91.3067 45.5823 91.8591 46.3741 91.8591 47.3777C91.8591 48.3812 91.3067 49.173 90.5978 49.173C89.8888 49.173 89.3364 48.3812 89.3364 47.3777C89.3364 46.3741 89.8888 45.5823 90.5978 45.5823ZM87.7068 45.5823C88.4157 45.5823 88.9681 46.3741 88.9681 47.3777C88.9681 48.3812 88.4157 49.173 87.7068 49.173C86.9978 49.173 86.4454 48.3812 86.4454 47.3777C86.4454 46.3741 86.9978 45.5823 87.7068 45.5823ZM84.8158 45.5823C85.5247 45.5823 86.0771 46.3741 86.0771 47.3777C86.0771 48.3812 85.5247 49.173 84.8158 49.173C84.1068 49.173 83.5544 48.3812 83.5544 47.3777C83.5544 46.3741 84.1068 45.5823 84.8158 45.5823Z" fill="#4D4D4D"/>
<path d="M81.9122 48.492C82.1792 48.492 82.483 48.0132 82.483 47.3779C82.483 46.7427 82.1792 46.2639 81.9122 46.2639C81.6452 46.2639 81.3413 46.7427 81.3413 47.3779C81.3413 48.0132 81.6452 48.492 81.9122 48.492Z" fill="#4D4D4D"/>
<path d="M93.4883 46.2639C93.2213 46.2639 92.9174 46.7427 92.9174 47.3779C92.9174 48.0132 93.2213 48.492 93.4883 48.492C93.7553 48.492 94.0591 48.0132 94.0591 47.3779C94.0591 46.7427 93.7553 46.2639 93.4883 46.2639Z" fill="#4D4D4D"/>
<path d="M90.5952 48.492C90.8622 48.492 91.166 48.0132 91.166 47.3779C91.166 46.7427 90.8622 46.2639 90.5952 46.2639C90.3282 46.2639 90.0244 46.7427 90.0244 47.3779C90.0244 48.0132 90.3282 48.492 90.5952 48.492Z" fill="#4D4D4D"/>
<path d="M87.7099 48.492C87.9769 48.492 88.2807 48.0132 88.2807 47.3779C88.2807 46.7427 87.9769 46.2639 87.7099 46.2639C87.4429 46.2639 87.139 46.7427 87.139 47.3779C87.139 48.0132 87.4429 48.492 87.7099 48.492Z" fill="#4D4D4D"/>
<path d="M84.8129 48.492C85.0799 48.492 85.3838 48.0132 85.3838 47.3779C85.3838 46.7427 85.0799 46.2639 84.8129 46.2639C84.5459 46.2639 84.2421 46.7427 84.2421 47.3779C84.2421 48.0132 84.5459 48.492 84.8129 48.492Z" fill="#4D4D4D"/>
<path d="M94.7178 39.6629H90.0591V40.1232H94.7178V39.6629Z" fill="#4D4D4D"/>
<path d="M85.359 39.6629H80.8476V40.1232H85.359V39.6629Z" fill="#4D4D4D"/>
<path d="M94.7178 40.473H90.0591V40.9333H94.7178V40.473Z" fill="#4D4D4D"/>
<path d="M85.359 40.473H80.8476V40.9333H85.359V40.473Z" fill="#4D4D4D"/>
<path d="M85.359 42.6462V41.2743H80.8476V42.8763H94.7317V41.2743H90.0638V42.6462H85.359Z" fill="#4D4D4D"/>
<path d="M87.9722 66.823C86.9594 66.823 86.14 67.8541 86.14 69.1155V75.8458H89.8135V69.1155C89.8135 67.8449 88.9941 66.823 87.9814 66.823" fill="#4D4D4D"/>
<path d="M87.1248 39.608V41.9926H88.2757V39.608C88.2757 39.4699 88.2941 39.341 88.3217 39.2213C88.2205 38.8531 87.9903 38.6137 87.6957 38.6137C87.401 38.6137 87.1709 38.8531 87.0696 39.2213C87.0972 39.341 87.1156 39.4699 87.1156 39.608" fill="#4D4D4D"/>
<path d="M88.277 39.608V41.9926H89.6212V39.608C89.6212 39.028 89.3358 38.6137 88.9491 38.6137C88.6545 38.6137 88.4243 38.8531 88.323 39.2213C88.2954 39.341 88.277 39.4699 88.277 39.608Z" fill="#4D4D4D"/>
<path d="M97.9142 43.4277C97.4354 43.4277 97.0487 43.8144 97.0487 44.2932V46.9908H98.7704V44.2932C98.7704 43.8144 98.3837 43.4277 97.905 43.4277" fill="#4D4D4D"/>
<path d="M109.819 64.0244C109.635 64.0244 109.47 64.3467 109.47 64.7057V67.0167H110.169V64.7057C110.169 64.3374 110.004 64.0244 109.819 64.0244Z" fill="#4D4D4D"/>
<path d="M107.729 64.0244C107.563 64.0244 107.379 64.3006 107.379 64.7057V67.0167H108.079V64.7057C108.079 64.3006 107.894 64.0244 107.729 64.0244Z" fill="#4D4D4D"/>
<path d="M105.63 64.0244C105.465 64.0244 105.28 64.3006 105.28 64.7057V67.0167H105.98V64.7057C105.98 64.3374 105.814 64.0244 105.63 64.0244Z" fill="#4D4D4D"/>
<path d="M103.536 64.0244C103.352 64.0244 103.186 64.3467 103.186 64.7057V67.0167H103.886V64.7057C103.886 64.2914 103.701 64.0244 103.536 64.0244Z" fill="#4D4D4D"/>
<path d="M111.702 64.0244C111.518 64.0244 111.352 64.3467 111.352 64.7057V67.0167H112.052V64.7057C112.052 64.3006 111.868 64.0244 111.702 64.0244Z" fill="#4D4D4D"/>
<path d="M85.7889 39.608V41.9926H87.1331V39.608C87.1331 39.4699 87.1147 39.341 87.0871 39.2213C86.995 38.8531 86.7557 38.6137 86.461 38.6137C86.0743 38.6137 85.7889 39.0372 85.7889 39.608Z" fill="#4D4D4D"/>
<path d="M63.9683 65.9763C63.9683 65.9763 63.8209 66.1604 63.8209 66.5195V68.3885H64.1248V66.5195C64.1248 66.1604 64.0143 65.9763 63.9683 65.9763Z" fill="#4D4D4D"/>
<path d="M62.8125 65.9763C62.8125 65.9763 62.656 66.1604 62.656 66.5195V68.3885H62.9598V66.5195C62.9598 66.1604 62.8494 65.9763 62.8125 65.9763Z" fill="#4D4D4D"/>
<path d="M67.9429 65.9763C67.9429 65.9763 67.7864 66.1604 67.7864 66.5195V68.3885H68.0902V66.5195C68.0902 66.1604 67.9797 65.9763 67.9429 65.9763Z" fill="#4D4D4D"/>
<path d="M66.778 65.9763C66.778 65.9763 66.6214 66.1604 66.6214 66.5195V68.3885H66.9253V66.5195C66.9253 66.1604 66.8148 65.9763 66.778 65.9763Z" fill="#4D4D4D"/>
<path d="M71.9006 65.9763C71.9006 65.9763 71.7441 66.1604 71.7441 66.5195V68.3885H72.0479V66.5195C72.0479 66.1604 71.9374 65.9763 71.9006 65.9763Z" fill="#4D4D4D"/>
<path d="M70.7472 65.9763C70.7472 65.9763 70.5907 66.1604 70.5907 66.5195V68.3885H70.8945V66.5195C70.8945 66.1604 70.7841 65.9763 70.7472 65.9763Z" fill="#4D4D4D"/>
<path d="M94.2914 69.7783C94.2914 68.8576 93.6929 68.1027 92.9564 68.1027C92.2198 68.1027 91.6213 68.8484 91.6213 69.7783V74.9711H94.2914V69.7783Z" fill="#4D4D4D"/>
<path d="M83.9573 69.7783C83.9573 68.8576 83.3589 68.1027 82.6223 68.1027C81.8858 68.1027 81.2873 68.8484 81.2873 69.7783V74.9711H83.9573V69.7783Z" fill="#4D4D4D"/>
<path d="M77.8157 47.5163C77.963 47.4886 78.1103 47.4242 78.2392 47.3137L77.8157 46.126V47.5255V47.5163Z" fill="#4D4D4D"/>
<path d="M76.9801 43.7961C76.8696 43.9342 76.7683 44.1092 76.6854 44.3117L77.3944 44.9746L76.9708 43.7961H76.9801Z" fill="#4D4D4D"/>
<path d="M76.5923 44.6245C76.5371 44.8271 76.5095 45.048 76.5003 45.2782H77.3013L76.5923 44.6245Z" fill="#4D4D4D"/>
<path d="M77.1715 47.3141C77.3004 47.4246 77.4477 47.4983 77.595 47.5259V46.1356L77.1715 47.3233V47.3141Z" fill="#4D4D4D"/>
<path d="M76.4887 45.638C76.4979 45.8682 76.5347 46.0892 76.59 46.2917L77.2897 45.638H76.4887Z" fill="#4D4D4D"/>
<path d="M77.1637 47.7278C77.3295 47.8567 77.5136 47.9304 77.707 47.9304C77.9003 47.9304 78.0844 47.8567 78.2502 47.7278C78.0844 47.8199 77.9003 47.8843 77.707 47.8843C77.5136 47.8843 77.3295 47.8291 77.1637 47.7278Z" fill="#4D4D4D"/>
<path d="M78.4243 47.1203C78.5348 46.973 78.6361 46.8073 78.7189 46.6047L78.0008 45.9418L78.4243 47.1203Z" fill="#4D4D4D"/>
<path d="M78.2579 43.1896C78.0922 43.0607 77.8988 42.987 77.7147 42.987C77.5305 42.987 77.3372 43.0607 77.1715 43.1896C77.3372 43.0975 77.5213 43.0331 77.7147 43.0331C77.908 43.0331 78.0922 43.0883 78.2579 43.1896Z" fill="#4D4D4D"/>
<path d="M77.595 43.3911C77.4385 43.4187 77.3004 43.4832 77.1715 43.6029L77.595 44.7906V43.3911Z" fill="#4D4D4D"/>
<path d="M76.697 46.6047C76.7799 46.7981 76.8719 46.973 76.9916 47.1111L77.4151 45.9418L76.7062 46.6047H76.697Z" fill="#4D4D4D"/>
<path d="M77.8157 44.7998L78.2392 43.6029C78.1103 43.4924 77.963 43.4187 77.8157 43.3911V44.7998Z" fill="#4D4D4D"/>
<path d="M78.8216 46.3014C78.8769 46.0988 78.9045 45.8779 78.9229 45.6477H78.1127L78.8216 46.3014Z" fill="#4D4D4D"/>
<path d="M78.9229 45.2787C78.9137 45.0486 78.8769 44.8276 78.8216 44.6158L78.1127 45.2787H78.9229Z" fill="#4D4D4D"/>
<path d="M78.7189 44.3117C78.6361 44.1092 78.5348 43.9434 78.4243 43.7961L78.0008 44.9746L78.7189 44.3117Z" fill="#4D4D4D"/>
<path d="M77.7069 48.6116C78.8762 48.6116 79.7969 47.2213 79.7969 45.4536C79.7969 43.6858 78.8762 42.2956 77.7069 42.2956C76.5376 42.2956 75.6169 43.6858 75.6169 45.4536C75.6169 47.2213 76.5376 48.6116 77.7069 48.6116ZM77.7069 42.9861C77.9003 42.9861 78.0844 43.0598 78.2501 43.1887C78.8486 43.5293 79.2721 44.3948 79.2721 45.4536C79.2721 46.5124 78.8486 47.387 78.2501 47.7185C78.0844 47.8474 77.9003 47.921 77.7069 47.921C77.5136 47.921 77.3294 47.8474 77.1637 47.7185C76.5652 47.3778 76.1417 46.5124 76.1417 45.4536C76.1417 44.3948 76.5652 43.5201 77.1637 43.1887C77.3294 43.0598 77.5136 42.9861 77.7069 42.9861Z" fill="#4D4D4D"/>
<path d="M77.8169 43.3912C77.8169 43.3912 77.7432 43.3728 77.7064 43.3728C77.6696 43.3728 77.6318 43.3911 77.595 43.3911V44.7906L77.1715 43.6029C77.107 43.6581 77.0435 43.7226 76.9883 43.7963L77.4118 44.9748L76.7028 44.3119C76.666 44.4132 76.6292 44.5144 76.6015 44.6249L77.3105 45.2786H76.5095C76.5095 45.3339 76.5003 45.3891 76.5003 45.4535C76.5003 45.518 76.5003 45.5732 76.5095 45.6377H77.3105L76.6108 46.2914C76.6384 46.4019 76.6752 46.5123 76.712 46.6044L77.421 45.9415L77.0067 47.1108C77.0619 47.1844 77.1264 47.2489 77.1908 47.3041L77.6143 46.1164V47.5067C77.6143 47.5067 77.688 47.5251 77.7248 47.5251C77.7616 47.5251 77.7985 47.5159 77.8353 47.5067V46.1164L78.2588 47.3041C78.3232 47.2489 78.3877 47.1844 78.4429 47.1108L78.0194 45.9323L78.7376 46.5952C78.7744 46.4939 78.8112 46.3927 78.8388 46.2822L78.1299 45.6285H78.9401C78.9401 45.564 78.9493 45.5088 78.9493 45.4443C78.9493 45.3799 78.9493 45.3246 78.9401 45.2694H78.1299L78.8388 44.6065C78.8112 44.496 78.7744 44.3947 78.7376 44.2935L78.0194 44.9564L78.4429 43.7779C78.3877 43.7042 78.3232 43.6398 78.2588 43.5845L77.8353 44.7814V43.382L77.8169 43.3912Z" fill="#4D4D4D"/>
<path d="M76.5778 68.1962H76.2187V73.0759H76.5778V68.1962Z" fill="#4D4D4D"/>
<path d="M78.086 68.1962H77.7269V73.0759H78.086V68.1962Z" fill="#4D4D4D"/>
<path d="M101.057 53.289V56.5851L113.661 56.6864L109.665 52.5525H101.535L101.057 53.289Z" fill="#4D4D4D"/>
<path d="M104.8 47.5156L103.051 50.2041H107.397L104.8 47.5156Z" fill="#4D4D4D"/>
<path d="M107.808 50.6276H102.781L101.805 52.1283H109.263L107.808 50.6276Z" fill="#4D4D4D"/>
<path d="M101.535 52.5525H109.665L109.85 52.5526L109.325 52.1291H101.711L101.435 52.5526L101.535 52.5525Z" fill="#4D4D4D"/>
<path d="M107.991 50.6278L107.467 50.2043H102.964L102.688 50.6278L102.781 50.6276H107.808L107.991 50.6278Z" fill="#4D4D4D"/>
<path d="M121.135 46.0713H122.018L123.805 40.6852L126.99 46.7434V46.0713H127.92V49.128H127.994L129.568 49.1924V48.64L122.819 37.5548L120.803 39.9578L117.498 47.526L116.678 47.7745V44.8467H115.887L115.877 47.9587L114.303 51.9177H118.253V51.0614L119.873 49.2661L121.135 49.2477V46.0713Z" fill="#4D4D4D"/>
<path d="M125.371 49.4858H125.196V49.5134H125.371V49.4858Z" fill="#4D4D4D"/>
<path d="M126.724 49.495L126.963 49.4858H126.724V49.495Z" fill="#4D4D4D"/>
<path d="M122.313 49.4858H122.064V49.5687H122.313V49.4858Z" fill="#4D4D4D"/>
<path d="M123.844 49.4858H123.669V49.5411H123.844V49.4858Z" fill="#4D4D4D"/>
<path d="M118.427 52.2584L118.592 52.2579V51.1991L119.762 49.9014V49.6528H119.992L120.029 49.6068L121.134 49.5883L121.135 49.2477L119.873 49.2661L118.253 51.0614V51.9177L114.312 51.9177L115.877 47.9587L115.887 44.8467H116.678V47.7745L117.507 47.526L120.803 39.9578L122.819 37.5548L129.568 48.64V49.1924L127.994 49.128H127.92L127.92 49.4686H127.984L129.568 49.5331L129.908 49.5515V48.548L122.856 36.9656L120.526 39.7553L117.249 47.2406L117.019 47.3142V44.5061H115.545V47.8574L113.805 52.2584H118.427Z" fill="#4D4D4D"/>
<path d="M51.11 48.9892H50.6864V49.1647H51.11V48.9892Z" fill="#4D4D4D"/>
<path d="M56.3293 48.9892H55.9518V49.1647H56.3293V48.9892Z" fill="#4D4D4D"/>
<path d="M54.2219 42.0104L56.3303 48.4921V47.9396L54.2587 41.5684L50.6864 48.4368V48.8143L54.2219 42.0104Z" fill="#4D4D4D"/>
<path d="M53.1903 48.9892H52.7116V49.1647H53.1903V48.9892Z" fill="#4D4D4D"/>
<path d="M52.2755 48.9892H51.5389V49.1647H52.2755V48.9892Z" fill="#4D4D4D"/>
<path d="M54.3469 48.9892H53.6104V49.1647H54.3469V48.9892Z" fill="#4D4D4D"/>
<path d="M55.5196 48.9892H54.783V49.1647H55.5196V48.9892Z" fill="#4D4D4D"/>
<path d="M119.899 67.4119V66.795H120.028V61.7772H119.899V61.1604H120.028V55.3508H119.899V54.7339H120.028V49.6517H119.761L119.762 75.8553L120.028 75.8547V67.4119H119.899Z" fill="#4D4D4D"/>
<path d="M118.291 56.3742H114.056V56.7977H118.291V56.3742Z" fill="#4D4D4D"/>
<path d="M118.291 61.4737L114.056 61.4737V61.8972H118.291V61.4737Z" fill="#4D4D4D"/>
<path d="M62.9546 55.4889H62.5403V57.9196H62.9546V55.4889Z" fill="#4D4D4D"/>
<path d="M63.6991 55.4889H63.2848V57.9196H63.6991V55.4889Z" fill="#4D4D4D"/>
<path d="M66.3877 55.4889H65.9734V57.9196H66.3877V55.4889Z" fill="#4D4D4D"/>
<path d="M67.136 55.4889H66.7217V57.9196H67.136V55.4889Z" fill="#4D4D4D"/>
<path d="M69.8285 55.4889H69.4142V57.9196H69.8285V55.4889Z" fill="#4D4D4D"/>
<path d="M70.573 55.4889H70.1587V57.9196H70.573V55.4889Z" fill="#4D4D4D"/>
<path d="M73.2616 55.4889H72.8473V57.9196H73.2616V55.4889Z" fill="#4D4D4D"/>
<path d="M73.9984 55.4889H73.5841V57.9196H73.9984V55.4889Z" fill="#4D4D4D"/>
<path d="M58.6572 49.3479H58.4823V75.8547H58.6572V49.3479Z" fill="#4D4D4D"/>
<path d="M58.4858 51.9362H56.893V52.1474H58.4858V51.9362Z" fill="#4D4D4D"/>
<path d="M56.3303 51.9362H50.6864V52.1474H56.3303V51.9362Z" fill="#4D4D4D"/>
<path d="M50.1222 51.9353H48.3913V52.147H50.1222V51.9353Z" fill="#4D4D4D"/>
<path d="M56.3303 56.7049H50.6864V56.9167H56.3303V56.7049Z" fill="#4D4D4D"/>
<path d="M58.4858 56.7049H56.893V56.9162H58.4858V56.7049Z" fill="#4D4D4D"/>
<path d="M50.1222 56.705H48.3913V56.9167H50.1222V56.705Z" fill="#4D4D4D"/>
<path d="M50.1222 61.4641H48.3913V61.6758H50.1222V61.4641Z" fill="#4D4D4D"/>
<path d="M58.4858 61.4644H56.893V61.6762H58.4858V61.4644Z" fill="#4D4D4D"/>
<path d="M56.3303 61.4641H50.6864V61.6762H56.3303V61.4641Z" fill="#4D4D4D"/>
<path d="M56.7283 44.8H56.5073V75.8551H56.7283V44.8Z" fill="#4D4D4D"/>
<path d="M50.5217 44.8H50.3007V73.1298H50.5217V44.8Z" fill="#4D4D4D"/>
<path d="M95.5798 36.413H95.4325V57.2115H95.5798V36.413Z" fill="#4D4D4D"/>
<path d="M100.22 36.413H100.073V57.2115H100.22V36.413Z" fill="#4D4D4D"/>
<path d="M122.996 47.948C123.328 47.948 123.595 48.4452 123.659 49.1449H123.862C123.926 48.4544 124.193 47.948 124.525 47.948C124.856 47.948 125.123 48.4452 125.188 49.1449H125.39C125.455 48.4544 125.722 47.948 126.053 47.948C126.385 47.948 126.652 48.4452 126.716 49.1449H126.78V47.0181L123.889 41.5492L122.076 46.9997V49.1449H122.333C122.398 48.4544 122.665 47.948 122.996 47.948Z" fill="#4D4D4D"/>
<path d="M122.315 49.4676C122.315 49.3572 122.315 49.2462 122.333 49.1449H122.076V49.4861H122.324V49.4676H122.315Z" fill="#4D4D4D"/>
<path d="M126.772 47.0191V49.1459H126.708C126.717 49.2472 126.726 49.3576 126.726 49.4681V49.4865H126.993V46.7337L123.808 40.6755L122.022 46.0708H122.077V47.0007L123.891 41.5501L126.782 47.0191H126.772Z" fill="#4D4D4D"/>
<path d="M123.666 49.4676V49.4861H123.841V49.4676C123.841 49.3572 123.841 49.2467 123.86 49.1454H123.657C123.657 49.2467 123.666 49.3572 123.666 49.4676Z" fill="#4D4D4D"/>
<path d="M125.194 49.4676V49.4861H125.369V49.4676C125.369 49.3572 125.369 49.2467 125.387 49.1454H125.185C125.185 49.2467 125.194 49.3572 125.194 49.4676Z" fill="#4D4D4D"/>
<path d="M121.734 67.4112H121.485V75.854H121.734V67.4112Z" fill="#4D4D4D"/>
<path d="M121.726 55.352H121.478V61.1616H121.726V55.352Z" fill="#4D4D4D"/>
<path d="M121.726 61.7775H121.478V66.7953H121.726V61.7775Z" fill="#4D4D4D"/>
<path d="M121.726 46.4211H121.478V54.7442H121.726V46.4211Z" fill="#4D4D4D"/>
<path d="M127.582 61.7775H127.333V66.7953H127.582V61.7775Z" fill="#4D4D4D"/>
<path d="M127.582 67.4112H127.333V72.6316H127.582V67.4112Z" fill="#4D4D4D"/>
<path d="M127.582 46.4211H127.333V54.7442H127.582V46.4211Z" fill="#4D4D4D"/>
<path d="M127.582 55.352H127.333V61.1616H127.582V55.352Z" fill="#4D4D4D"/>
<path d="M123.666 49.4676C123.666 49.3572 123.666 49.2468 123.647 49.1455C123.583 48.4458 123.325 47.9486 122.985 47.9486C122.644 47.9486 122.386 48.455 122.322 49.1455C122.322 49.2468 122.303 49.3573 122.303 49.4678V54.016H123.657V49.4678L123.666 49.4676ZM122.487 53.8411V49.4678C122.487 48.676 122.754 48.1144 122.994 48.1144C123.233 48.1144 123.5 48.6668 123.5 49.4678V53.8411H122.487Z" fill="#4D4D4D"/>
<path d="M125.2 49.4678C125.2 49.3573 125.2 49.2468 125.19 49.1455C125.126 48.4458 124.868 47.9486 124.528 47.9486C124.187 47.9486 123.929 48.455 123.865 49.1455C123.865 49.2468 123.846 49.3573 123.846 49.4678V54.016H125.2V49.4678ZM124.021 53.8411V49.4678C124.021 48.676 124.288 48.1144 124.528 48.1144C124.767 48.1144 125.034 48.6668 125.034 49.4678V53.8411H124.021Z" fill="#4D4D4D"/>
<path d="M126.725 49.4678C126.725 49.3573 126.725 49.2468 126.706 49.1455C126.642 48.4458 126.384 47.9486 126.043 47.9486C125.703 47.9486 125.445 48.455 125.381 49.1455C125.381 49.2468 125.362 49.3573 125.362 49.4678V54.016H126.716V49.4678H126.725ZM125.546 53.8411V49.4678C125.546 48.676 125.813 48.1144 126.053 48.1144C126.292 48.1144 126.559 48.6668 126.559 49.4678V53.8411H125.546Z" fill="#4D4D4D"/>
<path d="M119.904 54.7348V55.3517L121.478 55.352H121.726H127.333H127.582H127.923L129.571 55.3509H129.746V54.734H129.571L127.923 54.7348L119.904 54.7348Z" fill="#4D4D4D"/>
<path d="M119.904 61.1603V61.7771L121.478 61.7775H121.726H127.333H127.582H127.923H129.572L129.746 61.7774V61.1605H129.571L119.904 61.1603Z" fill="#4D4D4D"/>
<path d="M127.582 66.7953H127.333H121.726H121.478L119.904 66.795V67.4119H126.993L127.333 67.4112H127.582H127.923L129.571 67.412H129.746V66.7952L129.572 66.7953H127.923H127.582Z" fill="#4D4D4D"/>
<path d="M51.3648 48.9154C51.3648 48.7313 51.3464 48.6024 51.3188 48.5195C51.3004 48.5932 51.2728 48.7313 51.2728 48.9154V50.4898H51.3648V48.9154Z" fill="#4D4D4D"/>
<path d="M52.5375 48.9154C52.5375 48.7313 52.5191 48.6024 52.4915 48.5195C52.473 48.5932 52.4454 48.7313 52.4454 48.9154V50.4898H52.5375V48.9154Z" fill="#4D4D4D"/>
<path d="M53.444 48.9154C53.444 48.7313 53.4256 48.6024 53.398 48.5195C53.3795 48.5932 53.3519 48.7313 53.3519 48.9154V50.4898H53.444V48.9154Z" fill="#4D4D4D"/>
<path d="M54.6166 48.9154C54.6166 48.7313 54.5982 48.6024 54.5706 48.5195C54.5522 48.5932 54.5246 48.7313 54.5246 48.9154V50.4898H54.6166V48.9154Z" fill="#4D4D4D"/>
<path d="M55.7739 48.9154C55.7739 48.7313 55.7555 48.6024 55.7278 48.5195C55.7094 48.5932 55.6818 48.7313 55.6818 48.9154V50.4898H55.7739V48.9154Z" fill="#4D4D4D"/>
<path d="M137.508 57.8378V75.8558H141.845V41.0535H142.508V38.8438H144.901V27.7126C144.248 31.6348 139.479 31.8005 136.919 31.6072V57.847H137.517L137.508 57.8378Z" fill="#4D4D4D"/>
<path d="M146.907 27.4908H144.973V38.843H146.907V27.4908Z" fill="#4D4D4D"/>
<path d="M136.566 31.571H135.461V57.8385H136.566V31.571Z" fill="#4D4D4D"/>
<path d="M148.065 60.5527H147.623V65.2575H148.065V60.5527Z" fill="#4D4D4D"/>
<path d="M148.065 65.4237H147.623V70.1192H148.065V65.4237Z" fill="#4D4D4D"/>
<path d="M147.623 60.3885H148.065V56.1809H149.262V55.6837H147.623V60.3885Z" fill="#4D4D4D"/>
<path d="M146.298 70.295V70.12H147.458V65.4245H146.298V65.2496H147.458V60.5448H146.298V60.3791H147.458V55.6743H146.298V55.4994H147.458V51.255H146.298V51.0801H147.458V46.0715H146.298V45.8965H149.262V41.3759H148.71V39.1663H142.836V41.3759H142.173V75.8376H148.056V70.2766H146.298V70.295ZM143.941 73.4069H143.047V42.5912H143.941V73.4069ZM145.81 73.4069H144.916V42.5912H145.81V73.4069Z" fill="#4D4D4D"/>
<path d="M149.271 51.2631H147.623V55.5075H149.271V51.2631Z" fill="#4D4D4D"/>
<path d="M149.271 46.0797H147.623V51.0883H149.271V46.0797Z" fill="#4D4D4D"/>
<path d="M143.603 42.9311H143.392V73.0655H143.603V42.9311Z" fill="#4D4D4D"/>
<path d="M145.47 42.9311H145.259V73.0655H145.47V42.9311Z" fill="#4D4D4D"/>
<path d="M48.5032 73.1298V75.8551H51.8084V73.1298H48.5032Z" fill="#4D4D4D"/>
<path d="M126.415 72.6322V75.8547H130.328V72.6322H126.415Z" fill="#4D4D4D"/>
<path d="M41.3212 75.855V74.3819L41.3216 73.6367L41.3206 73.1669V71.6293L41.3216 71.3994V67.3299L41.3206 67.0996V65.1845L41.3216 64.9545V60.572H36.4603V75.8556L41.3212 75.855Z" fill="#4D4D4D"/>
<path d="M30.5371 55.6548H26.6702V75.8548H30.5371V55.6548Z" fill="#4D4D4D"/>
<path d="M25.9059 67.4942H21.6247V75.8541H25.9059V67.4942Z" fill="#4D4D4D"/>
<path d="M148.071 56.1794V75.8547H152.518V56.1794H148.071Z" fill="#4D4D4D"/>
<path d="M157.328 67.4942H152.927V75.8541H157.328V67.4942Z" fill="#4D4D4D"/>
<path d="M136.99 58.3531H133.555V75.8555H136.99V58.3531Z" fill="#4D4D4D"/>
<path d="M158.711 75.8551L133.051 75.8551H130.436L56.5044 75.8551L56.3303 75.8549L51.8084 75.8551H48.5032L47.2689 75.855H41.3212L36.4603 75.8556L36.1478 75.8551H20.2566L18.8203 81.3425H160.506L158.711 75.8551Z" fill="#4D4D4D"/>
<path d="M5.77036e-05 83.0011H184.498C184.498 83.0011 184.553 82.154 183.679 82.0712L161.462 80.7453L18.8191 81.3714L1.08648 82.4026C1.08648 82.4026 -0.00914925 82.3566 5.77036e-05 83.0011Z" fill="#4D4D4D"/>
</svg>
