<svg width="339" height="95" viewBox="0 0 339 95" fill="none" xmlns="http://www.w3.org/2000/svg">
<path d="M174.633 86.7952H174.177V89.8395H174.633V86.7952Z" fill="#4D4D4D"/>
<path d="M174.633 90.5608H174.177V93.6052H174.633V90.5608Z" fill="#4D4D4D"/>
<path d="M1.99805 95H336.997C336.997 95 337.052 94.1614 336.187 94.0794L314.204 92.7668L20.6187 93.3867L3.08213 94.4075C3.08213 94.4075 1.99805 94.3711 1.99805 95Z" fill="#4D4D4D"/>
<path d="M34.9254 78.5465C40.8742 75.6206 44.755 72.321 47.16 69.9147C52.1249 64.9471 54.2111 60.3714 60.3967 58.0744C63.157 57.0444 63.2755 57.7645 65.808 56.6707C71.3469 54.2917 71.5291 50.5911 76.6397 46.0336C77.988 44.8304 84.6747 38.8693 92.6823 39.6076C96.135 39.9266 98.9773 41.4123 100.107 42.0139C104.972 44.6117 105.546 47.3188 109.937 48.6405C111.075 48.9868 114.063 49.8801 116.96 48.6405C119.374 47.6105 119.484 46.0518 122.782 42.0139C126.098 37.9487 129.377 35.3965 131.208 33.9837C133.85 31.951 135.453 30.7114 138.032 29.572C139.717 28.8246 142.723 27.9952 148.663 26.3636C152.061 25.4339 152.352 25.3883 153.072 24.9599C155.541 23.5106 155.896 21.879 158.893 18.3333C160.269 16.7018 161.626 15.0975 163.703 13.5207C167.848 10.376 169.26 11.6156 171.328 9.10903C173.205 6.83029 172.704 5.00731 175.337 2.683C176.111 2.0085 176.913 1.31577 178.143 1.07878C180.475 0.632146 182.506 2.18168 183.964 3.28459C185.576 4.50599 186.77 5.89146 188.373 8.2978C190.878 12.044 191.051 13.2745 192.582 15.7265C195.096 19.7461 198.166 22.0887 201.409 24.5588C207.303 29.0525 208.406 27.7764 210.437 30.7843C211.148 31.8417 213.398 35.5241 215.849 38.0125C216.167 38.3406 216.924 39.0698 217.953 39.1154C219.155 39.1701 220.085 38.2677 220.558 37.8119C222.517 35.9251 224.585 34.1477 226.58 32.2883C229.176 29.8637 229.322 30.365 231.991 27.7764C233.759 26.0628 234.642 25.206 235.699 23.8661C237.439 21.6603 237.694 20.6576 239.106 20.0561C240.91 19.2813 242.732 19.9467 243.014 20.0561C244.691 20.6941 245.583 22.0431 246.021 22.6629C246.294 23.0457 248.808 25.288 253.846 29.7908C258.119 33.6008 260.296 35.5241 262.473 36.5176C265.425 37.8575 268.495 38.6232 268.495 38.6232C271.109 39.2794 271.21 38.9786 272.403 39.5255C273.496 40.0269 273.779 40.4461 277.924 44.639C279.445 46.1794 280.265 46.9815 281.631 47.3461C282.779 47.6469 284.036 47.6469 284.036 47.6469C285.385 47.6469 285.831 47.3553 286.742 47.5467C287.689 47.7381 288.291 48.2759 288.846 48.7498C290.24 49.9439 291.834 50.8918 293.155 52.1588C297.2 56.0327 300.516 58.4208 310.209 68.8209C313.789 72.6583 315.156 74.2899 314.618 75.7483C313.999 77.4528 310.965 78.4463 308.597 77.8538C308.214 77.7535 307.157 77.4436 305.39 75.7483C303.349 73.7977 302.848 72.3848 301.081 69.623C300.279 68.3652 298.521 65.7674 296.071 63.0967C293.638 60.4443 293.52 61.0094 291.461 58.5848C290.094 56.9806 288.546 55.5405 287.152 53.9727C286.596 53.3438 285.959 52.6237 284.947 52.4687C283.918 52.3047 282.761 52.7604 282.141 53.5716C281.504 54.4011 281.64 55.3217 281.64 56.5796C281.64 57.3817 281.34 58.9494 280.739 62.1032C280.329 64.2634 279.91 65.7492 279.135 68.5292C278.397 71.1726 277.75 73.4878 277.532 73.4422C277.277 73.3875 278.078 70.0697 278.233 65.2114C278.388 60.3714 277.823 56.8986 277.532 55.3764C276.903 52.0494 276.029 49.7069 275.027 47.7472C273.687 45.1312 272.558 44.0739 271.419 43.4358C271.164 43.29 270.517 42.9527 268.313 42.5335C263.138 41.549 261.189 42.3603 258.683 40.7287C258.137 40.3732 257.718 39.9539 256.88 39.1245C255.094 37.3471 254.793 36.4447 252.671 33.5006C250.311 30.2374 250.111 30.5656 249.164 28.7882C248.216 27.0016 248.253 26.3636 247.26 25.4794C246.066 24.413 245.292 24.6864 243.852 23.2736C243.26 22.6994 243.014 22.271 242.349 22.0705C241.338 21.7605 240.372 22.2528 240.145 22.3712C239.753 22.5718 239.006 23.0366 237.539 26.1813C236.747 27.8858 236.145 29.1801 235.736 31.0942C235.471 32.3339 235.371 33.4003 235.335 34.2024C234.761 33.774 233.841 33.2453 232.829 33.4003C231.873 33.5461 231.281 34.2206 230.825 34.7037C228.73 36.9095 228.429 36.0801 225.204 39.0151C223.246 40.8016 222.262 41.6949 221.697 42.7249C220.185 45.4502 221.214 46.9177 219.493 50.0533C218.645 51.6028 218.363 51.302 217.388 53.0612C216.778 54.1732 215.539 56.4155 215.584 59.0862C215.621 61.0003 216.34 62.3584 217.789 65.0109C218.745 66.7609 220.221 69.1399 222.399 71.7377C220.449 70.3249 219.128 68.9303 218.29 67.9277C216.176 65.4028 215.949 63.9809 213.58 61.0003C212.797 60.025 211.74 58.7125 210.073 57.2905C206.365 54.1276 203.641 53.8269 202.448 51.6666C202.311 51.4114 201.792 50.427 200.744 49.9621C200.526 49.8619 200.061 49.6704 199.542 49.7616C198.622 49.9257 198.093 50.8645 197.838 51.2656C197.273 52.1588 195.989 52.97 193.429 54.5743C190.66 56.3152 190.441 55.6772 187.908 57.2814C185.066 59.0862 185.54 59.7698 183.7 60.3896C181.786 61.0368 180.584 60.5446 178.489 61.693C177.733 62.1123 177.204 62.5498 176.785 62.8962C175.601 63.8806 174.954 64.7739 173.779 66.4055C171 70.2793 170.527 70.9356 169.47 71.4187C168.477 71.8835 167.52 71.9382 166.864 71.92C167.083 71.8106 167.393 71.6374 167.721 71.364C168.295 70.89 168.614 70.3887 168.796 70.0879C169.689 68.6204 170.126 67.5539 170.126 67.5539C170.654 66.2596 171.365 65.0473 171.984 63.7895C173.824 59.9977 177.769 56.9442 178.908 56.06C182.278 53.444 182.269 54.6199 186.032 51.7486C189.903 48.7863 191.844 47.3097 192.655 46.4346C193.001 46.0609 193.884 45.0674 195.36 44.5296C196.335 44.1741 197.219 44.1377 197.665 44.1286C199.068 44.0921 200.088 44.4111 200.872 44.6299C201.692 44.8669 204.452 45.6417 207.294 45.9333C208.989 46.1065 210.31 46.07 211.704 45.6325C212.687 45.3226 213.17 45.1677 213.507 44.7302C214.774 43.0712 212.533 39.4344 211.102 37.101C210.51 36.1348 209.435 34.5306 207.795 32.7896C206.174 31.0669 205.199 30.0369 203.587 29.2804C201.318 28.2139 200.781 29.0707 198.175 27.9769C197.255 27.5941 195.233 26.7099 193.766 24.6682C192.791 23.3101 192.4 21.9246 192.163 21.0587C191.689 19.3633 191.844 18.6068 191.161 16.6471C190.814 15.6627 190.45 14.9152 190.259 14.5415C189.339 12.755 188.665 12.3266 187.353 10.531C185.558 8.06993 185.995 7.74179 184.547 6.2196C183.654 5.28076 182.697 4.29635 181.14 4.01378C180.803 3.94998 179.445 3.72211 178.133 4.41484C176.721 5.15315 176.512 6.33809 175.127 8.52567C174.171 10.0387 173.323 10.9958 172.121 12.3357C170.044 14.66 168.44 15.5533 166.81 16.8476C164.532 18.6524 162.382 21.9611 158.082 28.5876C156.935 30.3468 155.851 32.106 153.673 35.6152C150.539 40.6558 149.41 42.5973 147.151 45.1494C146.877 45.4502 145.565 46.7263 142.942 49.2603C136.601 55.3855 135.025 56.7983 132.411 57.4911C130.734 57.9377 129.177 57.9377 127.901 57.7918C128.266 57.7372 128.803 57.646 129.432 57.4637C130.999 57.0262 132.092 56.379 132.675 56.0235C136.893 53.4805 139.835 49.3605 139.835 49.3605C141.539 46.9815 142.55 44.6846 143.543 42.4332C144.226 40.8928 144.326 40.4644 145.146 38.7234C146.804 35.2142 147.834 33.9381 148.854 32.9992C149.592 32.3339 150.284 31.8781 150.758 31.5955C143.434 33.0175 139.489 35.9069 137.221 38.4226C135.745 40.0633 134.542 42.0139 130.798 46.0518C129.222 47.7563 127.992 49.0689 126.189 50.664C122.353 54.0456 121.306 53.9362 119.466 55.978C116.906 58.8309 118.145 59.9612 115.658 64.6098C112.833 69.8782 108.743 73.0776 106.229 75.0464C104.297 76.5595 102.557 77.6442 101.319 78.3551C105.71 71.4916 106.903 67.7636 107.14 65.6124C107.267 64.4093 107.158 63.115 107.641 60.6995C108.014 58.831 108.406 57.9741 108.042 56.7892C107.823 56.0782 107.395 55.4311 105.737 54.0821C104.152 52.7878 102.576 51.7669 99.8154 50.1718C96.5723 48.2941 96.1077 48.1756 95.5064 47.2641C94.7229 46.07 94.732 45.0765 93.7026 44.4567C93.0012 44.0374 92.0902 43.9463 90.7966 44.2562C87.1981 45.113 83.8001 48.2667 79.3636 53.0885C76.3118 56.3973 76.5486 56.3973 75.0546 57.801C72.4674 60.2438 70.1899 61.7386 66.8283 63.8259C58.1921 69.1764 58.3926 68.4745 52.9904 71.9564C47.8524 75.2652 46.3948 76.7327 42.6597 77.7809C39.5714 78.6468 36.8567 78.6833 35.0347 78.583L34.9254 78.5465Z" fill="#4D4D4D"/>
<path d="M119.059 80.9525V88.29H118.357V80.5605H109.584V80.7611H109.211V81.1348H109.584V81.39H109.211V81.7637H109.584V82.0281H109.211V82.3927H109.584V82.657H109.211V83.0307H109.584V83.2859H109.211V83.6596H109.584V83.924H109.211V84.2886H109.584V84.4526H107.188V84.2886H107.425V83.924H107.188V83.6596H107.425V83.2859H107.188V83.0307H107.425V82.657H107.188V82.3927H107.425V82.0281H107.188V81.7637H107.425V81.39H107.188V81.1348H107.425V80.7611H107.188V80.4967H107.425V80.1321H107.188V79.8678H107.425V79.4941H107.188V79.2024H105.139V78.1542H99.864V79.7311H98.2971V80.9069H97.6867V79.6855H96.7758V65.448H94.1521V65.2475H96.8304V63.1419H93.0498V60.608H92.8312V63.1419H92.3119V60.9999H92.0933V63.1419H91.7015V60.1522H91.4829V63.1419H91.1549V59.7785H90.9363V63.1419H88.4675V60.2616H88.2489V63.1419H87.8754V60.7356H87.6567V63.1419H87.0828V60.9999H86.8642V63.1419H82.1088V65.2475H83.7668V65.448H82.0632V82.9578H81.717V76.8052H80.4052V75.9302H79.1845V76.9328H77.572V78.9837H73.2995V80.8978H71.2953V77.4068H69.8559V65.9675H66.1026V65.8217H69.8286V63.7253H66.1026V61.4374H65.8749V63.7253H64.7999V61.0728H64.5722V63.7253H62.4131V60.2525H62.1854V63.7253H59.3066V65.8217H62.1854V65.9675H59.6983V67.1069H58.9149V68.4559H58.7509V58.6574H58.5232V68.4559H58.4776V87.0139H57.3844V74.5356C57.3844 74.1436 54.6332 74.5356 54.6332 74.5356V73.1775H50.4427V74.4444H47.9101V88.1077H43.5009V85.5829H39.5745V68.8205H38.0532V67.4259H36.2676V65.8491H34.4365V63.4883H30.5739V63.3151H34.4183V62.2851H30.5739V62.1302H29.8816V62.2851H26.438V63.3151H29.8816V63.4883H26.2831V82.6114H25.6728V86.2938H22.2657V89.7666H21.218V93.8866H126.802V80.9525H119.059ZM64.5539 65.9767H62.3949V65.8399H64.5539V65.9767ZM65.8658 65.9767H64.7908V65.8399H65.8658V65.9767Z" fill="#4D4D4D"/>
<path d="M126.52 93.8877V91.053H127.658V90.0503H129.353V90.9254H130.319V81.4459H130.71V80.3976H131.148L132.76 78.2647H135.857L137.169 81.0995V91.053H140.531L142.298 70.271H142.571V65.3215H143.865V65.7317H144.494V65.3215H150.953L153.048 91.6637H154.004V90.5699H154.442V68.3477H153.795V65.5585H164.135V91.3629H164.608V81.4276H165.41V79.2674H169.892V79.9875H170.612V81.4276H173.554V85.2559H174.629V76.4509H175.613V75.6305H179.448V76.5785H180.952V75.5576H183.047V76.0316H183.566V76.3871H185.789V76.6879H186.709V74.9651H188.103V86.6414H191.309V90.8798H192.485V81.537H194.972V80.3976H198.333V81.8834H199.691V78.2647H204.309V82.5852H206.669V89.6584H209.675V93.8877H126.52Z" fill="#4D4D4D"/>
<path d="M207.979 93.8864V89.0463H209.355V80.6333H211.058V79.348H213.673V80.2049H214.784V84.8443H216.688V73.7879H217.162V68.0638H217.736V67.1887H224.951V67.7812H225.47V68.4193H225.816V75.1917L227.092 76.1396V84.5253H228.795V73.9156H236.22V84.261H236.94V70.2696H237.432V68.5742H246.487V70.142H247.252V85.9017H247.963V79.8585H250.541V77.279H255.251V79.8949H256.125V93.8864H207.979Z" fill="#4D4D4D"/>
<path d="M256.129 84.4163H258.133V65.2932H270.613V67.5628H273.665V70.9718H274.367V73.1503H275.852L277.118 74.4173H279.168V77.2611H285.535V80.3967H287.02V78.3914H288.259V77.2885H287.704V76.1765H292.186V74.636H294.873V73.1321H297.324V72.2115H298.244V71.1724H300.467V72.3482H303.874V67.335H307.244V68.0551H311.59V79.8771H312.674V70.1241H325.3V88.3904L330.648 86.9503V93.8868H256.129V84.4163Z" fill="#4D4D4D"/>
<path d="M174.692 86.7076H174.231V89.7844H174.692V86.7076Z" fill="#4D4D4D"/>
<path d="M174.692 90.5133H174.231V93.5901H174.692V90.5133Z" fill="#4D4D4D"/>
<path d="M0.125 94.9997H338.873C338.873 94.9997 338.928 94.1523 338.053 94.0694L315.825 92.7428L18.9541 93.3692L1.22121 94.401C1.22121 94.401 0.125 94.3641 0.125 94.9997Z" fill="#4D4D4D"/>
<path d="M33.4208 78.3713C39.4361 75.4143 43.3604 72.0796 45.7923 69.6477C50.8128 64.6272 52.9223 60.0028 59.1772 57.6814C61.9684 56.6405 62.0881 57.3682 64.649 56.2628C70.2498 53.8585 70.4341 50.1185 75.602 45.5126C76.9653 44.2966 83.7268 38.272 91.8241 39.0182C95.3154 39.3406 98.1895 40.8421 99.3317 41.4501C104.251 44.0755 104.831 46.8114 109.271 48.1471C110.423 48.4972 113.444 49.4 116.374 48.1471C118.815 47.1062 118.925 45.531 122.26 41.4501C125.613 37.3416 128.929 34.7623 130.781 33.3345C133.452 31.2802 135.074 30.0274 137.681 28.8759C139.385 28.1205 142.425 27.2823 148.431 25.6333C151.867 24.6937 152.162 24.6477 152.89 24.2147C155.386 22.75 155.745 21.1011 158.776 17.5177C160.167 15.8688 161.539 14.2475 163.64 12.6538C167.831 9.47572 169.259 10.7285 171.35 8.19527C173.248 5.8923 172.741 4.04993 175.403 1.7009C176.186 1.01923 176.997 0.319124 178.241 0.0796151C180.599 -0.371766 182.653 1.19425 184.127 2.30889C185.758 3.54328 186.964 4.94348 188.586 7.37542C191.119 11.1615 191.294 12.4051 192.841 14.8831C195.384 18.9455 198.488 21.313 201.768 23.8094C207.728 28.3508 208.842 27.0612 210.897 30.1011C211.615 31.1697 213.891 34.8913 216.369 37.4061C216.691 37.7377 217.456 38.4747 218.496 38.5207C219.712 38.576 220.652 37.664 221.131 37.2034C223.112 35.2966 225.203 33.5003 227.22 31.6211C229.846 29.1707 229.993 29.6773 232.692 27.0612C234.479 25.3293 235.373 24.4634 236.441 23.1093C238.201 20.88 238.459 19.8667 239.886 19.2587C241.71 18.4757 243.553 19.1482 243.838 19.2587C245.533 19.9036 246.436 21.2669 246.878 21.8933C247.155 22.2802 249.697 24.5463 254.791 29.097C259.112 32.9476 261.313 34.8913 263.515 35.8954C266.5 37.2495 269.604 38.0233 269.604 38.0233C272.248 38.6866 272.349 38.3826 273.556 38.9353C274.661 39.4419 274.947 39.8657 279.138 44.1031C280.677 45.6599 281.506 46.4706 282.887 46.8391C284.048 47.1431 285.319 47.1431 285.319 47.1431C286.683 47.1431 287.134 46.8483 288.055 47.0417C289.013 47.2352 289.621 47.7787 290.183 48.2577C291.593 49.4644 293.205 50.4225 294.54 51.7029C298.631 55.618 301.984 58.0315 311.785 68.5422C315.405 72.4204 316.787 74.0694 316.244 75.5433C315.617 77.2659 312.55 78.27 310.155 77.6712C309.768 77.5699 308.699 77.2567 306.912 75.5433C304.849 73.5719 304.342 72.1441 302.555 69.3529C301.744 68.0816 299.966 65.4562 297.488 62.7572C295.029 60.0765 294.909 60.6476 292.827 58.1973C291.445 56.576 289.879 55.1205 288.47 53.5361C287.908 52.9005 287.263 52.1727 286.241 52.0161C285.2 51.8503 284.03 52.3109 283.403 53.1308C282.758 53.969 282.897 54.8994 282.897 56.1707C282.897 56.9813 282.593 58.5658 281.985 61.7531C281.57 63.9363 281.146 65.4378 280.363 68.2474C279.617 70.9189 278.963 73.2587 278.742 73.2126C278.484 73.1574 279.295 69.8043 279.451 64.8943C279.608 60.0028 279.037 56.4931 278.742 54.9547C278.106 51.5924 277.222 49.2249 276.209 47.2444C274.855 44.6006 273.712 43.532 272.561 42.8872C272.303 42.7398 271.649 42.3989 269.42 41.9752C264.187 40.9803 262.216 41.8002 259.683 40.1512C259.13 39.792 258.706 39.3682 257.859 38.53C256.053 36.7336 255.749 35.8217 253.603 32.8462C251.217 29.5484 251.014 29.88 250.056 28.0837C249.098 26.2782 249.135 25.6333 248.131 24.7398C246.924 23.662 246.141 23.9384 244.686 22.5105C244.087 21.9302 243.838 21.4972 243.166 21.2945C242.143 20.9813 241.167 21.4788 240.937 21.5985C240.54 21.8012 239.785 22.271 238.302 25.4491C237.501 27.1717 236.893 28.4798 236.478 30.4143C236.211 31.6671 236.11 32.7449 236.073 33.5555C235.492 33.1226 234.562 32.5883 233.539 32.7449C232.572 32.8923 231.973 33.574 231.513 34.0622C229.394 36.2915 229.09 35.4532 225.829 38.4194C223.849 40.2249 222.854 41.1277 222.283 42.1686C220.753 44.923 221.794 46.4061 220.053 49.575C219.197 51.141 218.911 50.837 217.925 52.6149C217.308 53.7387 216.055 56.0049 216.101 58.7039C216.138 60.6384 216.866 62.011 218.331 64.6917C219.298 66.4603 220.79 68.8646 222.992 71.49C221.021 70.0622 219.685 68.6528 218.837 67.6395C216.7 65.0878 216.47 63.6507 214.075 60.6384C213.283 59.6528 212.214 58.3263 210.528 56.8892C206.779 53.6927 204.025 53.3887 202.818 51.2055C202.68 50.9476 202.155 49.9527 201.095 49.4829C200.874 49.3815 200.404 49.1881 199.879 49.2802C198.949 49.446 198.415 50.3948 198.157 50.8002C197.586 51.7029 196.287 52.5228 193.698 54.1441C190.898 55.9035 190.677 55.2587 188.116 56.88C185.242 58.7039 185.721 59.3948 183.86 60.0213C181.925 60.6753 180.709 60.1778 178.591 61.3385C177.826 61.7623 177.292 62.2045 176.868 62.5545C175.67 63.5494 175.016 64.4522 173.828 66.1011C171.018 70.0161 170.539 70.6794 169.471 71.1676C168.467 71.6374 167.5 71.6927 166.836 71.6743C167.057 71.5637 167.371 71.3887 167.702 71.1123C168.283 70.6333 168.605 70.1267 168.789 69.8227C169.692 68.3396 170.134 67.2618 170.134 67.2618C170.668 65.9537 171.387 64.7285 172.013 63.4573C173.874 59.6251 177.863 56.5392 179.014 55.6456C182.423 53.0018 182.414 54.1901 186.218 51.2884C190.133 48.2945 192.095 46.8022 192.915 45.9179C193.265 45.5402 194.159 44.5361 195.651 43.9926C196.637 43.6333 197.53 43.5965 197.982 43.5873C199.4 43.5504 200.432 43.8728 201.224 44.0939C202.053 44.3334 204.844 45.1164 207.719 45.4112C209.432 45.5862 210.768 45.5494 212.177 45.1072C213.172 44.794 213.66 44.6374 214.001 44.1953C215.282 42.5187 213.015 38.8432 211.569 36.4849C210.97 35.5085 209.883 33.8872 208.225 32.1277C206.586 30.3867 205.6 29.3457 203.969 28.5811C201.676 27.5033 201.132 28.3693 198.497 27.2638C197.567 26.8769 195.522 25.9834 194.039 23.9199C193.053 22.5474 192.657 21.1472 192.418 20.272C191.939 18.5586 192.095 17.794 191.404 15.8135C191.054 14.8186 190.686 14.0632 190.492 13.6855C189.562 11.88 188.88 11.4471 187.554 9.63232C185.739 7.14512 186.181 6.81349 184.717 5.27511C183.814 4.32629 182.847 3.3314 181.271 3.04584C180.93 2.98135 179.558 2.75106 178.231 3.45116C176.804 4.19732 176.592 5.39486 175.191 7.60571C174.224 9.13488 173.368 10.1021 172.152 11.4563C170.051 13.8053 168.43 14.7081 166.781 16.0161C164.478 17.8401 162.304 21.184 157.956 27.881C156.795 29.6589 155.699 31.4368 153.498 34.9834C150.329 40.0775 149.186 42.0397 146.902 44.619C146.625 44.923 145.299 46.2127 142.646 48.7736C136.234 54.9639 134.641 56.3918 131.997 57.0919C130.302 57.5433 128.727 57.5433 127.437 57.3959C127.806 57.3406 128.349 57.2485 128.985 57.0642C130.569 56.6221 131.675 55.968 132.264 55.6088C136.529 53.0386 139.505 48.8749 139.505 48.8749C141.227 46.4706 142.25 44.1492 143.254 41.8739C143.945 40.3171 144.046 39.8841 144.875 38.1246C146.552 34.5781 147.593 33.2884 148.624 32.3396C149.371 31.6671 150.071 31.2065 150.55 30.9209C143.143 32.358 139.155 35.2782 136.861 37.8206C135.369 39.4788 134.153 41.4501 130.367 45.531C128.773 47.2536 127.529 48.5801 125.705 50.1922C121.827 53.6098 120.768 53.4992 118.907 55.5627C116.318 58.446 117.571 59.5883 115.056 64.2863C112.201 69.6108 108.065 72.8442 105.522 74.8339C103.569 76.3631 101.81 77.4593 100.557 78.1778C104.997 71.2413 106.204 67.4736 106.443 65.2996C106.572 64.0837 106.462 62.7756 106.95 60.3344C107.328 58.446 107.724 57.5801 107.355 56.3826C107.134 55.664 106.701 55.01 105.025 53.6466C103.422 52.3385 101.828 51.3068 99.0369 49.6947C95.7575 47.7971 95.2877 47.6773 94.6797 46.7561C93.8875 45.5494 93.8967 44.5453 92.8558 43.9189C92.1465 43.4952 91.2253 43.403 89.9172 43.7162C86.2785 44.5822 82.8425 47.7695 78.3563 52.6425C75.2703 55.9864 75.5098 55.9864 73.9991 57.4051C71.3829 59.8739 69.0799 61.3846 65.6808 63.4941C56.9479 68.9015 57.1506 68.1922 51.6879 71.7111C46.4924 75.055 45.0185 76.5381 41.2417 77.5975C38.1189 78.4726 35.3737 78.5095 33.5313 78.4081L33.4208 78.3713Z" fill="#4D4D4D"/>
<path d="M118.494 80.8027V88.2183H117.785V80.4066H108.914V80.6093H108.536V80.987H108.914V81.2449H108.536V81.6226H108.914V81.8897H108.536V82.2582H108.914V82.5254H108.536V82.903H108.914V83.161H108.536V83.5387H108.914V83.8058H108.536V84.1743H108.914V84.3401H106.491V84.1743H106.731V83.8058H106.491V83.5387H106.731V83.161H106.491V82.903H106.731V82.5254H106.491V82.2582H106.731V81.8897H106.491V81.6226H106.731V81.2449H106.491V80.987H106.731V80.6093H106.491V80.3421H106.731V79.9737H106.491V79.7065H106.731V79.3288H106.491V79.0341H104.418V77.9747H99.0847V79.5684H97.5002V80.7567H96.883V79.5223H95.9618V65.1334H93.3088V64.9307H96.0171V62.8027H92.1942V60.2419H91.9731V62.8027H91.448V60.638H91.2269V62.8027H90.8308V59.7813H90.6097V62.8027H90.2781V59.4036H90.057V62.8027H87.5606V59.8918H87.3395V62.8027H86.9618V60.3708H86.7408V62.8027H86.1604V60.638H85.9393V62.8027H81.1307V64.9307H82.8073V65.1334H81.0847V82.8294H80.7346V76.6113H79.4081V75.727H78.1737V76.7403H76.5432V78.813H72.2229V80.7475H70.1962V77.2193H68.7408V65.6584H64.9455V65.511H68.7131V63.3923H64.9455V61.0801H64.7152V63.3923H63.6282V60.7117H63.3979V63.3923H61.2147V59.8826H60.9844V63.3923H58.0734V65.511H60.9844V65.6584H58.4695V66.8099H57.6773V68.1733H57.5115V58.2705H57.2812V68.1733H57.2351V86.9286H56.1297V74.3176C56.1297 73.9215 53.3477 74.3176 53.3477 74.3176V72.945H49.1103V74.2255H46.5494V88.0341H42.0908V85.4824H38.1205V68.5417H36.5821V67.1323H34.7766V65.5387H32.925V63.1528H29.0192V62.9778H32.9066V61.9368H29.0192V61.7802H28.3191V61.9368H24.837V62.9778H28.3191V63.1528H24.6804V82.4793H24.0632V86.2009H20.618V89.7106H19.5586V93.8744H126.324V80.8027H118.494ZM63.3795 65.6676H61.1963V65.5295H63.3795V65.6676ZM64.706 65.6676H63.619V65.5295H64.706V65.6676Z" fill="#4D4D4D"/>
<path d="M126.039 93.8756V91.0107H127.19V89.9974H128.904V90.8817H129.88V81.3014H130.276V80.242H130.718L132.349 78.0864H135.481L136.807 80.9513V91.0107H140.206L141.994 70.0076H142.27V65.0056H143.578V65.4201H144.214V65.0056H150.745L152.864 91.6279H153.831V90.5224H154.273V68.0639H153.619V65.2451H164.074V91.3239H164.553V81.2829H165.364V79.0997H169.896V79.8275H170.624V81.2829H173.6V85.1519H174.687V76.2533H175.681V75.4242H179.56V76.3822H181.08V75.3505H183.198V75.8295H183.723V76.1888H185.971V76.4928H186.901V74.7517H188.311V86.5521H191.553V90.8356H192.742V81.3935H195.257V80.242H198.656V81.7435H200.028V78.0864H204.699V82.4528H207.085V89.6012H210.125V93.8756H126.039Z" fill="#4D4D4D"/>
<path d="M208.41 93.8742V88.9827H209.801V80.4801H211.523V79.1812H214.167V80.0472H215.291V84.736H217.216V73.562H217.695V67.7769H218.276V66.8926H225.571V67.4914H226.096V68.1362H226.446V74.9806L227.736 75.9387V84.4136H229.459V73.691H236.966V84.1464H237.694V70.0062H238.192V68.2928H247.348V69.8773H248.122V85.8046H248.84V79.6971H251.447V77.0901H256.21V79.7339H257.094V93.8742H208.41Z" fill="#4D4D4D"/>
<path d="M257.098 84.3034H259.125V64.9769H271.745V67.2707H274.831V70.7159H275.54V72.9176H277.042L278.322 74.198H280.395V77.0721H286.834V80.241H288.335V78.2144H289.588V77.0998H289.026V75.9759H293.558V74.4191H296.276V72.8991H298.754V71.9687H299.684V70.9186H301.932V72.1069H305.377V67.0404H308.786V67.7681H313.18V79.7159H314.276V69.8592H327.044V88.3198L332.451 86.8643V93.8746H257.098V84.3034Z" fill="#4D4D4D"/>
</svg>
